<svg width="250" height="58" viewBox="0 0 250 58" fill="none" xmlns="http://www.w3.org/2000/svg">
<g clip-path="url(#clip0_194_1608)">
<path d="M243.42 10.9488L249.383 16.9526C249.591 17.1184 249.746 17.3423 249.826 17.5959C249.947 19.0736 248.829 19.1544 247.686 19.237C247.191 19.2727 246.693 19.3089 246.289 19.4586C244.283 20.0013 242.494 21.1476 241.164 22.7419C239.833 24.3361 239.026 26.3013 238.85 28.3704C238.721 28.6094 238.527 28.8061 238.289 28.9369C238.051 29.0677 237.781 29.1269 237.51 29.1076C237.196 29.0797 236.901 28.9421 236.679 28.7189L234.721 26.7483C234.736 26.8831 234.736 27.0167 234.736 27.1241V28.424C234.736 28.5061 234.739 28.5853 234.729 28.6643C234.716 28.7529 234.686 28.8411 234.616 28.9331V29.0539C234.616 29.1154 234.623 29.1727 234.63 29.2309C234.644 29.3499 234.66 29.4724 234.616 29.6436C234.573 29.8031 234.569 29.9893 234.563 30.1554C234.561 30.2541 234.559 30.3459 234.549 30.4207C234.534 30.5246 234.534 30.6354 234.526 30.7461C234.517 30.8499 234.5 30.9534 234.454 31.0506C234.391 31.1866 234.37 31.3164 234.364 31.4484C234.36 31.5116 234.36 31.5751 234.36 31.6403L234.28 32.0557L231.239 46.5559L230.997 47.6413L230.903 49.2227L229.563 56.0707L229.349 57.1429H120.893L120.37 56.6201L120.276 57.0759H108.671L102.211 50.5763L102.828 47.6413H99.1824L96.9177 45.3497C94.107 47.3964 90.7049 48.4693 87.2286 48.4053C83.4917 48.5523 79.8487 47.2126 77.0973 44.6797L73.5727 41.1284L72.8089 44.693C72.7151 45.2023 72.5944 45.6849 72.4604 46.1539L72.3399 46.5961L72.1389 47.2393C72.1223 47.2951 72.0999 47.3491 72.0719 47.4001C71.8723 47.991 71.6351 48.5684 71.3616 49.1289C71.3687 49.1506 71.3687 49.1741 71.3616 49.1959C71.3264 49.2701 71.2861 49.3417 71.2409 49.4103C71.0386 49.8107 70.815 50.1999 70.5709 50.5763C70.5256 50.6447 70.4853 50.7164 70.4503 50.7907L70.3029 50.9514C69.9753 51.4213 69.6171 51.8689 69.2307 52.2916C69.1247 52.3976 69.0187 52.4971 68.911 52.5949C68.801 52.6949 68.6893 52.793 68.574 52.8946L68.2793 53.176C68.0934 53.3304 67.9033 53.4794 67.7091 53.623C67.549 53.7414 67.3861 53.856 67.2206 53.9667C64.4587 55.6031 61.2729 56.382 58.0676 56.2047C53.6451 56.2047 50.1071 54.9181 47.8691 52.6669L41.5706 46.328C39.0547 47.7517 36.206 48.4824 33.3154 48.4454C29.5899 48.5607 25.9689 47.2029 23.2377 44.6663L19.7133 41.115L18.5741 46.5961L18.3463 47.6816H6.48623L0 41.1417L0.33503 39.5604L7.4645 5.32026L7.67887 4.24817H19.5791L19.8874 4.54304V4.24817H100.067L100.362 4.54304V4.24817H111.967L118.453 10.788L118.132 12.3559L117.783 14.0713H121.12L121.643 14.594C123.111 13.7335 124.779 13.2715 126.481 13.2538C127.732 13.2291 128.975 13.4668 130.129 13.9515C131.283 14.4363 132.323 15.1571 133.181 16.068L133.007 15.867L136.156 19.0431C138.073 15.4383 142.375 13.2538 148.217 13.2538C152.747 13.2538 156.084 14.4063 158.107 16.4969L160.386 18.7886L161.15 15.1031L161.377 14.031H172.996L176.32 17.368L176.789 15.1166L177.017 14.0445H199.88L200.496 14.661C202.044 13.7472 203.817 13.2831 205.616 13.3208C206.697 13.2786 207.774 13.4766 208.771 13.9007C209.767 14.3247 210.657 14.9643 211.377 15.7733C211.34 15.7311 211.304 15.689 211.269 15.6476C211.204 15.5707 211.14 15.4957 211.071 15.4263L212.236 16.5907C213.25 15.5403 214.47 14.7084 215.817 14.1462C217.166 13.584 218.614 13.303 220.074 13.3208C220.85 13.2731 221.624 13.3391 222.376 13.5148L221.107 12.2353C220.934 12.0504 220.817 11.8203 220.77 11.5717C220.723 11.3232 220.747 11.0662 220.839 10.8307C220.931 10.5951 221.089 10.3906 221.293 10.2408C221.497 10.0909 221.739 10.0018 221.991 9.98393H223.01C223.284 9.95776 223.557 9.91751 223.827 9.86329C225.251 9.56392 226.591 8.95177 227.75 8.071C228.91 7.19033 229.859 6.06311 230.529 4.77084C230.587 4.67089 230.64 4.56807 230.689 4.46263V4.39564C231.15 3.40307 231.43 2.33687 231.52 1.24631C231.543 0.907433 231.696 0.590151 231.944 0.358837C232.193 0.12744 232.52 -0.000814057 232.86 3.8884e-06H232.967C233.17 0.0193074 233.367 0.0849067 233.541 0.19173C233.716 0.298636 233.863 0.443903 233.973 0.61649C234.937 1.55459 240.297 7.00881 240.297 7.00881C240.744 7.48911 240.711 8.11264 240.677 8.74352C240.656 9.1336 240.634 9.52654 240.726 9.89011C240.97 9.93387 241.217 9.967 241.463 9.98941C241.7 10.0108 241.937 10.0224 242.174 10.0241C242.451 10.0299 242.721 10.122 242.944 10.2877C243.167 10.4534 243.334 10.6844 243.42 10.9488Z" fill="black"/>
<path d="M61.3372 15.3578H69.8068L65.0628 37.8584C64.1918 42.12 62.5299 44.5591 60.0105 46.2878C57.4622 47.7665 54.536 48.4654 51.5946 48.298C45.9929 48.298 40.6189 45.9528 40.0829 40.2572H48.606C48.874 41.5974 50.107 42.3612 51.9832 42.3612C54.516 42.3612 55.6819 40.8335 56.2046 38.4347L56.7138 35.9554H56.5262C55.7783 36.7775 54.8712 37.439 53.8599 37.8997C52.8485 38.3604 51.7542 38.6108 50.643 38.6357C45.7115 38.6357 41.7982 34.7091 41.8786 28.96C41.9859 22.2594 46.3546 14.6475 53.6852 14.6475C55.0743 14.554 56.4612 14.8601 57.6819 15.5298C58.9026 16.1994 59.9059 17.2047 60.5733 18.4267H60.7208L61.3372 15.3578ZM54.0603 32.3505C57.3169 32.3505 59.126 28.5982 59.1796 25.3685C59.1796 23.211 58.3353 20.9997 55.8428 20.9997C52.4388 20.9997 50.71 24.7922 50.6565 28.0487C50.6565 30.2465 51.5008 32.3505 53.9933 32.3505M149.143 33.0742C149.143 34.5081 147.908 35.0844 146.287 35.0844C143.607 35.0844 142.709 33.7442 142.696 31.8681H134.267C134.119 38.8635 140.364 40.5922 145.913 40.5922C153.001 40.5922 157.598 37.5234 157.693 31.3991C157.693 26.5075 153.524 25.0201 149.424 24.0685C146.274 23.345 144.894 22.8222 144.907 21.6295C144.921 20.4368 146.328 19.9544 147.708 19.9544C149.437 19.9544 150.616 20.5708 150.737 22.1522H158.926C158.831 16.3092 153.564 14.594 148.204 14.594C141.691 14.594 136.612 17.5555 136.531 23.1572C136.531 27.5662 139.507 29.1878 143.996 30.3404C146.877 31.1042 149.168 31.3454 149.143 33.0742ZM211.766 18.9895H211.618C211.254 17.6698 210.448 16.5145 209.337 15.715C208.226 14.9155 206.874 14.52 205.507 14.594C201.863 14.594 199.638 16.4031 197.534 19.137H197.387L198.164 15.3578H189.64L184.534 39.7748H193.447L196.127 26.6014C196.743 23.7335 198.204 21.7234 200.416 21.7234C202.627 21.7234 202.921 23.4922 202.466 25.65L199.517 39.7748H208.428L211.11 26.6014C211.726 23.546 213.187 21.7234 215.397 21.7234C217.608 21.7234 217.904 23.3985 217.448 25.65L214.5 39.7748H223.411L226.601 25.2612C227.941 19.137 225.891 14.5402 220.008 14.5402C218.371 14.5335 216.76 14.9372 215.32 15.7145C213.88 16.4918 212.658 17.6178 211.766 18.9895ZM1.63477 39.7748H10.8414L17.9575 5.53467H8.76422L1.63477 39.7748ZM29.3485 14.6341C35.5666 14.6341 41.5035 18.038 41.4096 25.7437C41.3292 34.1731 35.5935 40.4851 26.829 40.4851C20.7985 40.4851 14.768 37.1348 14.8752 29.4692C15.0226 21.241 20.6779 14.6341 29.3485 14.6341ZM27.0838 34.5081C31.0103 34.5081 32.4442 28.8125 32.4442 25.4622C32.4442 23.0635 31.7072 20.7182 29.1206 20.7182C25.2343 20.7182 23.9076 26.7488 23.9076 29.858C23.9076 32.3505 24.6045 34.5081 27.1373 34.5081M21.0263 5.53467L19.6862 12.3827H96.9979L98.338 5.53467H21.0263ZM83.208 14.6341C89.4262 14.6341 95.3629 18.038 95.2692 25.7437C95.1888 34.1731 89.4396 40.4851 80.6752 40.4851C74.6446 40.4851 68.614 37.1348 68.7347 29.4692C68.9223 21.241 74.5776 14.6341 83.208 14.6341ZM80.9835 34.5081C84.91 34.5081 86.3439 28.8125 86.3439 25.4622C86.3439 23.0635 85.5935 20.7182 83.007 20.7182C79.134 20.7182 77.7939 26.7488 77.7939 29.858C77.7939 32.3505 78.4908 34.5081 81.037 34.5081M101.501 5.53467L100.161 12.3827H109.059L110.399 5.53467H101.501ZM94.3713 39.7748H103.283L108.389 15.3578H99.4235L94.3713 39.7748ZM122.809 40.5922C121.39 40.693 119.972 40.3965 118.712 39.7361C117.453 39.0757 116.403 38.0774 115.679 36.8534H115.532L112.852 49.2092H103.832L111.069 15.3578H119.539L118.869 18.6142C119.753 17.4114 120.899 16.4247 122.22 15.7282C123.54 15.032 125.002 14.6441 126.494 14.594C131.854 14.594 135.004 19.1905 134.91 25.1675C134.789 32.6855 130.89 40.5922 122.755 40.5922H122.809ZM122.46 21.509C119.016 21.509 116.899 25.918 116.845 29.3085C116.845 31.6671 117.676 34.2937 120.504 34.2937C124.189 34.2937 125.703 29.4157 125.743 26.1591C125.743 23.948 125.1 21.509 122.46 21.509ZM173.988 35.9287H174.136L173.358 39.8017H181.827L186.934 15.3845H178.036L175.194 29.027C174.618 31.8547 172.876 33.3422 170.678 33.3422C168.48 33.3422 167.997 31.2784 168.44 29.1208L171.321 15.3845H162.423L159.273 30.461C157.933 37.0275 160.988 40.5655 166.108 40.5655C167.716 40.5498 169.291 40.1105 170.674 39.2917C172.057 38.4728 173.201 37.3035 173.988 35.9018V35.9287ZM221.79 49.3299L223.13 42.4818H117.448L116.108 49.3299H221.79Z" fill="white"/>
<path d="M231.371 22.0584C231.284 22.0517 231.199 22.0276 231.12 21.9874C231.04 21.9474 230.97 21.8922 230.913 21.8249C230.856 21.7576 230.813 21.6797 230.786 21.5956C230.759 21.5114 230.749 21.4229 230.756 21.3347C230.867 20.1413 230.726 18.9376 230.34 17.8027C229.954 16.6679 229.333 15.6272 228.516 14.7492C227.7 13.8711 226.707 13.1754 225.604 12.7075C224.5 12.2397 223.31 12.0103 222.111 12.0343C221.934 12.0343 221.764 11.9638 221.639 11.8381C221.513 11.7124 221.441 11.542 221.441 11.3643C221.441 11.1866 221.513 11.0161 221.639 10.8905C221.764 10.7648 221.934 10.6942 222.111 10.6942C222.433 10.715 222.756 10.715 223.077 10.6942C225.457 10.4406 227.674 9.36521 229.347 7.65302C231.021 5.94084 232.044 3.69898 232.243 1.31335C232.257 1.14509 232.333 0.988134 232.457 0.873844C232.581 0.759556 232.744 0.696361 232.913 0.696903C233.001 0.703667 233.087 0.727793 233.166 0.76788C233.244 0.807967 233.314 0.863229 233.371 0.930487C233.43 0.997747 233.473 1.07567 233.5 1.15978C233.527 1.24389 233.537 1.33251 233.53 1.42056C233.419 2.61294 233.56 3.81544 233.944 4.94941C234.33 6.08337 234.95 7.12327 235.764 8.00112C236.58 8.87897 237.57 9.575 238.671 10.0437C239.774 10.5124 240.963 10.7432 242.16 10.721C242.337 10.721 242.509 10.7916 242.634 10.9173C242.76 11.0429 242.83 11.2134 242.83 11.3911C242.83 11.5688 242.76 11.7392 242.634 11.8649C242.509 11.9906 242.337 12.0611 242.16 12.0611C239.614 12.1032 237.173 13.084 235.306 14.8153C233.439 16.5466 232.276 18.9064 232.043 21.442C232.029 21.6103 231.953 21.7673 231.829 21.8816C231.704 21.9959 231.541 22.059 231.371 22.0584Z" fill="white"/>
</g>
<defs>
<clipPath id="clip0_194_1608">
<rect width="250" height="57.1429" fill="white"/>
</clipPath>
</defs>
</svg>
