<svg width="250" height="61" viewBox="0 0 250 61" fill="none" xmlns="http://www.w3.org/2000/svg">
<path d="M76.2649 41.3795H93.8414V36.0853H82.512V16.1442H76.2649V41.3795Z" fill="#340E0E"/>
<path d="M104.255 37.85C101.749 37.85 100.443 35.6618 100.443 32.3794C100.443 29.0971 101.749 26.8735 104.255 26.8735C106.761 26.8735 108.102 29.0971 108.102 32.3794C108.102 35.6618 106.761 37.85 104.255 37.85ZM104.29 41.9441C110.113 41.9441 113.925 37.8147 113.925 32.3794C113.925 26.9441 110.113 22.8147 104.29 22.8147C98.5017 22.8147 94.6194 26.9441 94.6194 32.3794C94.6194 37.8147 98.5017 41.9441 104.29 41.9441Z" fill="#340E0E"/>
<path d="M124.005 47.6265C126.688 47.6265 129.053 47.0265 130.641 45.6147C132.088 44.3088 133.041 42.3324 133.041 39.6147V23.3088H127.535V25.25H127.464C126.405 23.7324 124.782 22.7794 122.382 22.7794C117.9 22.7794 114.794 26.5206 114.794 31.8147C114.794 37.3559 118.57 40.3912 122.629 40.3912C124.817 40.3912 126.194 39.5088 127.253 38.3088H127.394V40.1088C127.394 42.2971 126.37 43.5677 123.935 43.5677C122.029 43.5677 121.076 42.7559 120.758 41.8029H115.182C115.747 45.5794 119.029 47.6265 124.005 47.6265ZM123.97 36.1206C121.817 36.1206 120.405 34.3559 120.405 31.6382C120.405 28.8853 121.817 27.1206 123.97 27.1206C126.37 27.1206 127.641 29.1677 127.641 31.6029C127.641 34.1441 126.476 36.1206 123.97 36.1206Z" fill="#340E0E"/>
<path d="M144.362 37.85C141.856 37.85 140.55 35.6618 140.55 32.3794C140.55 29.0971 141.856 26.8735 144.362 26.8735C146.868 26.8735 148.209 29.0971 148.209 32.3794C148.209 35.6618 146.868 37.85 144.362 37.85ZM144.397 41.9441C150.221 41.9441 154.032 37.8147 154.032 32.3794C154.032 26.9441 150.221 22.8147 144.397 22.8147C138.609 22.8147 134.727 26.9441 134.727 32.3794C134.727 37.8147 138.609 41.9441 144.397 41.9441Z" fill="#340E0E"/>
<path d="M155.712 41.3795H161.465V23.3089H155.712V41.3795ZM155.712 20.803H161.465V16.1442H155.712V20.803Z" fill="#340E0E"/>
<path d="M163.962 47.3441H169.715V39.5088H169.785C170.915 41.0265 172.573 41.9441 174.903 41.9441C179.632 41.9441 182.773 38.2029 182.773 32.3441C182.773 26.9088 179.844 22.7794 175.044 22.7794C172.573 22.7794 170.809 23.8735 169.573 25.4971H169.468V23.3088H163.962V47.3441ZM173.42 37.4971C170.95 37.4971 169.538 35.4853 169.538 32.5559C169.538 29.6265 170.809 27.403 173.315 27.403C175.785 27.403 176.95 29.45 176.95 32.5559C176.95 35.6265 175.609 37.4971 173.42 37.4971Z" fill="#340E0E"/>
<path d="M192.14 41.9441C196.869 41.9441 200.363 39.8971 200.363 35.9441C200.363 31.3206 196.622 30.5088 193.446 29.9794C191.152 29.5559 189.105 29.3794 189.105 28.1088C189.105 26.9794 190.199 26.45 191.61 26.45C193.199 26.45 194.293 26.9441 194.505 28.5677H199.799C199.516 25.0029 196.763 22.7794 191.646 22.7794C187.375 22.7794 183.846 24.7559 183.846 28.5677C183.846 32.8029 187.199 33.65 190.34 34.1794C192.74 34.6029 194.928 34.7794 194.928 36.4029C194.928 37.5677 193.834 38.2029 192.104 38.2029C190.199 38.2029 188.999 37.3206 188.787 35.5206H183.352C183.528 39.5088 186.846 41.9441 192.14 41.9441Z" fill="#340E0E"/>
<path d="M208.178 41.9088C210.684 41.9088 212.272 40.9206 213.578 39.1559H213.684V41.3794H219.19V23.3088H213.437V33.403C213.437 35.5559 212.237 37.0382 210.26 37.0382C208.425 37.0382 207.543 35.9441 207.543 33.9677V23.3088H201.825V35.1677C201.825 39.1912 204.013 41.9088 208.178 41.9088Z" fill="#340E0E"/>
<path d="M221.691 41.3794H227.444V31.25C227.444 29.0971 228.503 27.5794 230.303 27.5794C232.032 27.5794 232.844 28.7088 232.844 30.65V41.3794H238.597V31.25C238.597 29.0971 239.621 27.5794 241.456 27.5794C243.185 27.5794 243.997 28.7088 243.997 30.65V41.3794H249.75V29.6265C249.75 25.5677 247.703 22.7794 243.609 22.7794C241.279 22.7794 239.338 23.7677 237.926 25.9559H237.856C236.938 24.0147 235.138 22.7794 232.774 22.7794C230.162 22.7794 228.432 24.0147 227.303 25.8853H227.197V23.3088H221.691V41.3794Z" fill="#340E0E"/>
<path fill-rule="evenodd" clip-rule="evenodd" d="M30.4179 59.0265C46.6616 59.0265 59.8297 45.8584 59.8297 29.6147C59.8297 13.3711 46.6616 0.203003 30.4179 0.203003C14.1742 0.203003 1.0061 13.3711 1.0061 29.6147C1.0061 45.8584 14.1742 59.0265 30.4179 59.0265ZM39.5933 13.9042C40.04 12.3178 38.5004 11.3797 37.0944 12.3814L17.4666 26.3641C15.9417 27.4505 16.1816 29.6147 17.8269 29.6147H22.9954V29.5747H33.0686L24.8608 32.4708L21.2425 45.3253C20.7958 46.9118 22.3352 47.8499 23.7414 46.8481L43.3692 32.8655C44.8941 31.7791 44.6541 29.6147 43.0089 29.6147H35.171L39.5933 13.9042Z" fill="#F15757"/>
</svg>
