<svg width="250" height="61" viewBox="0 0 250 61" fill="none" xmlns="http://www.w3.org/2000/svg">
<path d="M75.4082 43.1224H92.9847V37.8283H81.6553V17.8871H75.4082V43.1224Z" fill="#2F234F"/>
<path d="M103.398 39.5929C100.892 39.5929 99.5862 37.4047 99.5862 34.1223C99.5862 30.84 100.892 28.6164 103.398 28.6164C105.904 28.6164 107.245 30.84 107.245 34.1223C107.245 37.4047 105.904 39.5929 103.398 39.5929ZM103.433 43.687C109.257 43.687 113.069 39.5576 113.069 34.1223C113.069 28.687 109.257 24.5576 103.433 24.5576C97.6451 24.5576 93.7627 28.687 93.7627 34.1223C93.7627 39.5576 97.6451 43.687 103.433 43.687Z" fill="#2F234F"/>
<path d="M123.149 49.3694C125.831 49.3694 128.196 48.7694 129.784 47.3576C131.231 46.0518 132.184 44.0753 132.184 41.3576V25.0518H126.678V26.9929H126.607C125.549 25.4753 123.925 24.5223 121.525 24.5223C117.043 24.5223 113.937 28.2635 113.937 33.5576C113.937 39.0988 117.713 42.1341 121.772 42.1341C123.96 42.1341 125.337 41.2518 126.396 40.0518H126.537V41.8518C126.537 44.04 125.513 45.3106 123.078 45.3106C121.172 45.3106 120.219 44.4988 119.901 43.5459H114.325C114.89 47.3223 118.172 49.3694 123.149 49.3694ZM123.113 37.8635C120.96 37.8635 119.549 36.0988 119.549 33.3812C119.549 30.6282 120.96 28.8635 123.113 28.8635C125.513 28.8635 126.784 30.9106 126.784 33.3459C126.784 35.887 125.619 37.8635 123.113 37.8635Z" fill="#2F234F"/>
<path d="M143.505 39.5929C140.999 39.5929 139.693 37.4047 139.693 34.1223C139.693 30.84 140.999 28.6164 143.505 28.6164C146.011 28.6164 147.351 30.84 147.351 34.1223C147.351 37.4047 146.011 39.5929 143.505 39.5929ZM143.54 43.687C149.363 43.687 153.175 39.5576 153.175 34.1223C153.175 28.687 149.363 24.5576 143.54 24.5576C137.752 24.5576 133.87 28.687 133.87 34.1223C133.87 39.5576 137.752 43.687 143.54 43.687Z" fill="#2F234F"/>
<path d="M154.856 43.1224H160.609V25.0518H154.856V43.1224ZM154.856 22.5459H160.609V17.8871H154.856V22.5459Z" fill="#2F234F"/>
<path d="M163.104 49.087H168.857V41.2518H168.928C170.057 42.7694 171.716 43.687 174.046 43.687C178.775 43.687 181.916 39.9459 181.916 34.087C181.916 28.6518 178.987 24.5223 174.187 24.5223C171.716 24.5223 169.952 25.6165 168.716 27.24H168.61V25.0518H163.104V49.087ZM172.563 39.24C170.093 39.24 168.681 37.2282 168.681 34.2988C168.681 31.3694 169.952 29.1459 172.457 29.1459C174.928 29.1459 176.093 31.1929 176.093 34.2988C176.093 37.3694 174.752 39.24 172.563 39.24Z" fill="#2F234F"/>
<path d="M191.282 43.687C196.012 43.687 199.506 41.64 199.506 37.687C199.506 33.0635 195.765 32.2518 192.588 31.7223C190.294 31.2988 188.247 31.1223 188.247 29.8518C188.247 28.7223 189.341 28.1929 190.753 28.1929C192.341 28.1929 193.435 28.687 193.647 30.3106H198.941C198.659 26.7459 195.906 24.5223 190.788 24.5223C186.518 24.5223 182.988 26.4988 182.988 30.3106C182.988 34.5459 186.341 35.3929 189.482 35.9223C191.882 36.3459 194.071 36.5223 194.071 38.1459C194.071 39.3106 192.976 39.9459 191.247 39.9459C189.341 39.9459 188.141 39.0635 187.929 37.2635H182.494C182.671 41.2517 185.988 43.687 191.282 43.687Z" fill="#2F234F"/>
<path d="M207.321 43.6518C209.827 43.6518 211.415 42.6635 212.721 40.8988H212.827V43.1223H218.332V25.0518H212.58V35.1459C212.58 37.2988 211.38 38.7812 209.403 38.7812C207.568 38.7812 206.685 37.6871 206.685 35.7106V25.0518H200.968V36.9106C200.968 40.9341 203.156 43.6518 207.321 43.6518Z" fill="#2F234F"/>
<path d="M220.835 43.1223H226.588V32.9929C226.588 30.84 227.647 29.3223 229.447 29.3223C231.176 29.3223 231.988 30.4518 231.988 32.3929V43.1223H237.741V32.9929C237.741 30.84 238.765 29.3223 240.6 29.3223C242.329 29.3223 243.141 30.4518 243.141 32.3929V43.1223H248.894V31.3694C248.894 27.3106 246.847 24.5223 242.753 24.5223C240.423 24.5223 238.482 25.5106 237.07 27.6988H237C236.082 25.7576 234.282 24.5223 231.918 24.5223C229.306 24.5223 227.576 25.7576 226.447 27.6282H226.341V25.0518H220.835V43.1223Z" fill="#2F234F"/>
<path fill-rule="evenodd" clip-rule="evenodd" d="M29.5609 59.2988C45.8047 59.2988 58.9726 46.1307 58.9726 29.887C58.9726 13.6434 45.8047 0.475342 29.5609 0.475342C13.3172 0.475342 0.14917 13.6434 0.14917 29.887C0.14917 46.1307 13.3172 59.2988 29.5609 59.2988ZM34.1006 23.1997C36.6076 20.6925 36.6076 16.6276 34.1006 14.1204C31.5934 11.6133 27.5285 11.6133 25.0213 14.1204C22.5143 16.6276 22.5143 20.6925 25.0213 23.1997L29.5609 27.7393L34.1006 23.1997ZM36.2484 34.4268C38.7556 36.934 42.8204 36.934 45.3276 34.4268C47.8347 31.9195 47.8347 27.8547 45.3276 25.3475C42.8204 22.8404 38.7556 22.8404 36.2484 25.3475L31.7088 29.8872L36.2484 34.4268ZM34.1006 45.6538C36.6076 43.1466 36.6076 39.0818 34.1006 36.5745L29.5609 32.035L25.0213 36.5745C22.5143 39.0818 22.5143 43.1466 25.0213 45.6538C27.5285 48.161 31.5934 48.161 34.1006 45.6538ZM13.7942 34.4268C11.2871 31.9195 11.2871 27.8547 13.7942 25.3475C16.3015 22.8404 20.3663 22.8404 22.8735 25.3475L27.4131 29.8872L22.8735 34.4268C20.3663 36.934 16.3015 36.934 13.7942 34.4268Z" fill="#7F57F1"/>
</svg>
