<svg width="250" height="63" viewBox="0 0 250 63" fill="none" xmlns="http://www.w3.org/2000/svg">
<path d="M75.2368 43.4218H92.9173V38.0964H81.5208V18.0372H75.2368V43.4218Z" fill="#1A1414"/>
<path d="M103.392 39.8716C100.872 39.8716 99.5579 37.6704 99.5579 34.3686C99.5579 31.0668 100.872 28.8302 103.392 28.8302C105.913 28.8302 107.262 31.0668 107.262 34.3686C107.262 37.6704 105.913 39.8716 103.392 39.8716ZM103.428 43.9899C109.286 43.9899 113.12 39.8361 113.12 34.3686C113.12 28.9012 109.286 24.7473 103.428 24.7473C97.6053 24.7473 93.7 28.9012 93.7 34.3686C93.7 39.8361 97.6053 43.9899 103.428 43.9899Z" fill="#1A1414"/>
<path d="M123.26 49.7059C125.958 49.7059 128.337 49.1023 129.934 47.6822C131.39 46.3686 132.349 44.3804 132.349 41.6467V25.2443H126.81V27.197H126.739C125.674 25.6704 124.041 24.7118 121.627 24.7118C117.118 24.7118 113.994 28.4751 113.994 33.8005C113.994 39.3745 117.792 42.4278 121.875 42.4278C124.076 42.4278 125.461 41.5402 126.526 40.3331H126.668V42.1437C126.668 44.3449 125.639 45.623 123.189 45.623C121.272 45.623 120.313 44.8065 119.994 43.8479H114.384C114.952 47.6467 118.254 49.7059 123.26 49.7059ZM123.224 38.1319C121.059 38.1319 119.639 36.3568 119.639 33.623C119.639 30.8538 121.059 29.0787 123.224 29.0787C125.639 29.0787 126.917 31.1378 126.917 33.5875C126.917 36.1437 125.745 38.1319 123.224 38.1319Z" fill="#1A1414"/>
<path d="M143.737 39.8716C141.216 39.8716 139.902 37.6704 139.902 34.3686C139.902 31.0668 141.216 28.8302 143.737 28.8302C146.257 28.8302 147.607 31.0668 147.607 34.3686C147.607 37.6704 146.257 39.8716 143.737 39.8716ZM143.772 43.9899C149.63 43.9899 153.465 39.8361 153.465 34.3686C153.465 28.9012 149.63 24.7473 143.772 24.7473C137.95 24.7473 134.044 28.9012 134.044 34.3686C134.044 39.8361 137.95 43.9899 143.772 43.9899Z" fill="#1A1414"/>
<path d="M155.154 43.4218H160.941V25.2443H155.154V43.4218ZM155.154 22.7236H160.941V18.0372H155.154V22.7236Z" fill="#1A1414"/>
<path d="M163.453 49.4218H169.24V41.5402H169.311C170.447 43.0668 172.115 43.9899 174.459 43.9899C179.216 43.9899 182.376 40.2266 182.376 34.3331C182.376 28.8656 179.429 24.7118 174.601 24.7118C172.115 24.7118 170.34 25.8124 169.098 27.4455H168.991V25.2443H163.453V49.4218ZM172.967 39.5165C170.482 39.5165 169.062 37.4929 169.062 34.5461C169.062 31.5994 170.34 29.3627 172.861 29.3627C175.346 29.3627 176.518 31.4219 176.518 34.5461C176.518 37.6349 175.169 39.5165 172.967 39.5165Z" fill="#1A1414"/>
<path d="M191.797 43.9899C196.555 43.9899 200.069 41.9307 200.069 37.9544C200.069 33.3035 196.306 32.4869 193.111 31.9544C190.803 31.5284 188.744 31.3508 188.744 30.0727C188.744 28.9366 189.845 28.4041 191.265 28.4041C192.862 28.4041 193.963 28.9011 194.176 30.5343H199.501C199.217 26.9485 196.448 24.7118 191.3 24.7118C187.004 24.7118 183.454 26.7 183.454 30.5343C183.454 34.7946 186.827 35.6467 189.987 36.1792C192.401 36.6053 194.602 36.7828 194.602 38.4159C194.602 39.5875 193.501 40.2266 191.762 40.2266C189.845 40.2266 188.638 39.339 188.424 37.5284H182.957C183.135 41.5402 186.472 43.9899 191.797 43.9899Z" fill="#1A1414"/>
<path d="M207.931 43.9544C210.451 43.9544 212.049 42.9604 213.363 41.1852H213.469V43.4219H219.007V25.2444H213.221V35.3982C213.221 37.5639 212.013 39.055 210.025 39.055C208.179 39.055 207.292 37.9544 207.292 35.9663V25.2444H201.54V37.1734C201.54 41.2207 203.741 43.9544 207.931 43.9544Z" fill="#1A1414"/>
<path d="M221.524 43.4219H227.311V33.2325C227.311 31.0668 228.376 29.5402 230.186 29.5402C231.926 29.5402 232.743 30.6763 232.743 32.629V43.4219H238.53V33.2325C238.53 31.0668 239.559 29.5402 241.405 29.5402C243.145 29.5402 243.962 30.6763 243.962 32.629V43.4219H249.749V31.5994C249.749 27.5165 247.689 24.7118 243.571 24.7118C241.228 24.7118 239.275 25.7059 237.855 27.9071H237.784C236.861 25.9544 235.05 24.7118 232.672 24.7118C230.044 24.7118 228.305 25.9544 227.169 27.8361H227.062V25.2443H221.524V43.4219Z" fill="#1A1414"/>
<path fill-rule="evenodd" clip-rule="evenodd" d="M30.5978 1.42297C47.2573 1.42297 60.7625 14.9281 60.7625 31.5876C60.7625 48.2472 47.2573 61.7524 30.5978 61.7524C13.9383 61.7524 0.433105 48.2472 0.433105 31.5876C0.433105 14.9281 13.9383 1.42297 30.5978 1.42297ZM59.6046 31.5876C59.6046 15.5676 46.6178 2.5807 30.5978 2.5807C29.3055 2.5807 28.0332 2.66519 26.7855 2.82897C27.5916 2.75849 28.4073 2.72252 29.2316 2.72252C44.5395 2.72252 56.9492 15.1321 56.9492 30.4401C56.9492 45.7479 44.5395 58.1575 29.2316 58.1575C14.739 58.1575 2.84434 47.0349 1.61826 32.8602C2.28431 48.2898 15.004 60.5945 30.5978 60.5945C46.6178 60.5945 59.6046 47.6077 59.6046 31.5876ZM55.7913 30.4401C55.7913 15.7714 43.9002 3.88025 29.2316 3.88025C28.0406 3.88025 26.8678 3.95866 25.7182 4.11056C26.4261 4.05101 27.1422 4.02062 27.8654 4.02062C41.8219 4.02062 53.1358 15.3346 53.1358 29.291C53.1358 43.2475 41.8219 54.5614 27.8654 54.5614C14.6692 54.5614 3.83551 44.4464 2.69443 31.5467C3.27459 45.7021 14.9338 56.9998 29.2316 56.9998C43.9002 56.9998 55.7913 45.1086 55.7913 30.4401ZM27.8654 5.17836C41.1824 5.17836 51.9781 15.974 51.9781 29.291C51.9781 42.608 41.1824 53.4035 27.8654 53.4035C14.857 53.4035 4.25437 43.1024 3.77012 30.2123C4.81561 41.8469 14.5927 50.9651 26.4995 50.9651C39.1035 50.9651 49.3212 40.7475 49.3212 28.1433C49.3212 15.5392 39.1035 5.32161 26.4995 5.32161C25.8474 5.32161 25.2017 5.34897 24.5635 5.40256C25.6431 5.25473 26.7453 5.17836 27.8654 5.17836ZM48.1634 28.1433C48.1634 16.1787 38.4641 6.47935 26.4995 6.47935C25.4885 6.47935 24.4937 6.54858 23.5197 6.68258C24.0515 6.64095 24.5891 6.61975 25.1317 6.61975C36.3844 6.61975 45.5064 15.7417 45.5064 26.9944C45.5064 38.2469 36.3844 47.3689 25.1317 47.3689C14.5405 47.3689 5.83682 39.2877 4.85027 28.955C5.27709 40.5436 14.8064 49.8074 26.4995 49.8074C38.4641 49.8074 48.1634 40.1081 48.1634 28.1433ZM25.1317 7.77747C35.7449 7.77747 44.3486 16.3812 44.3486 26.9944C44.3486 37.6075 35.7449 46.2112 25.1317 46.2112C14.7276 46.2112 6.25463 37.9432 5.92484 27.6192C6.81557 36.6876 14.4632 43.7728 23.7656 43.7728C33.6668 43.7728 41.6931 35.7463 41.6931 25.8453C41.6931 15.9442 33.6668 7.91784 23.7656 7.91784C23.3116 7.91784 22.8614 7.93472 22.4159 7.96789C23.3032 7.84238 24.2098 7.77747 25.1317 7.77747ZM40.5354 25.8453C40.5354 16.5836 33.0273 9.07558 23.7656 9.07558C22.9202 9.07558 22.0894 9.13814 21.2776 9.25888C21.6481 9.23234 22.0222 9.21883 22.3996 9.21883C30.9483 9.21883 37.8784 16.149 37.8784 24.6976C37.8784 33.2465 30.9483 40.1765 22.3996 40.1765C14.3889 40.1765 7.79956 34.0914 7.00173 26.2914C7.23826 35.3469 14.6532 42.6151 23.7656 42.6151C33.0273 42.6151 40.5354 35.107 40.5354 25.8453ZM22.3996 10.3766C30.3089 10.3766 36.7206 16.7883 36.7206 24.6976C36.7206 32.6071 30.3089 39.0188 22.3996 39.0188C14.5908 39.0188 8.24185 32.7692 8.08151 24.999C8.80286 31.5136 14.3265 36.5803 21.0335 36.5803C28.2307 36.5803 34.0651 30.7459 34.0651 23.5487C34.0651 16.3515 28.2307 10.5169 21.0335 10.5169C20.7582 10.5169 20.485 10.5255 20.214 10.5423C20.9265 10.4332 21.6564 10.3766 22.3996 10.3766ZM32.9074 23.5487C32.9074 16.9908 27.5913 11.6747 21.0335 11.6747C20.3749 11.6747 19.7289 11.7283 19.0995 11.8314C19.287 11.8215 19.4758 11.8165 19.6659 11.8165C25.5114 11.8165 30.2503 16.5553 30.2503 22.401C30.2503 28.2467 25.5114 32.9857 19.6659 32.9857C14.2606 32.9857 9.80167 28.9339 9.16043 23.7019C9.24253 30.1892 14.5268 35.4226 21.0335 35.4226C27.5913 35.4226 32.9074 30.1065 32.9074 23.5487ZM19.6659 12.9742C24.8721 12.9742 29.0927 17.1947 29.0927 22.401C29.0927 27.6074 24.8721 31.8278 19.6659 31.8278C14.4595 31.8278 10.239 27.6074 10.239 22.401C10.239 22.3886 10.239 22.376 10.2391 22.3636C10.7811 26.3311 14.1834 29.388 18.2998 29.388C22.7931 29.388 26.4357 25.7454 26.4357 21.2521C26.4357 16.7586 22.7931 13.1161 18.2998 13.1161C18.1981 13.1161 18.0969 13.1179 17.9962 13.1216C18.5381 13.0248 19.0961 12.9742 19.6659 12.9742ZM25.2779 21.2521C25.2779 17.3981 22.1537 14.2738 18.2998 14.2738C14.4458 14.2738 11.3215 17.3981 11.3215 21.2521C11.3215 25.1059 14.4458 28.2302 18.2998 28.2302C22.1537 28.2302 25.2779 25.1059 25.2779 21.2521Z" fill="#1A1414"/>
</svg>
