<svg width="742" height="498" viewBox="0 0 742 498" fill="none" xmlns="http://www.w3.org/2000/svg">
<path d="M180.804 406.607C160.066 391.339 101.743 348.387 106.643 298.663C110.577 258.723 151.219 255.901 169.558 201.98C188.511 146.231 154.392 121.778 175.525 83.4474C203.882 31.998 290.767 29.8482 319.226 29.1462C357.63 28.1956 406.74 26.9818 447.689 61.5982C506.831 111.571 519.378 211.237 484.777 253.634C474.027 266.811 459.652 273.319 456.961 291.38C453.027 317.851 479.994 330.106 482.13 354.953C485.215 390.901 434.073 427.082 398.696 442.365C294.116 487.54 186.727 410.965 180.804 406.607Z" fill="#FFBF00" fill-opacity="0.32"/>
<path d="M181.477 434.204C144.827 406.856 129.048 357.571 139.095 314.999C145.91 286.115 161.485 284.624 175.291 256.72C211.75 183.056 141.961 115.11 166.457 61.5837C189.082 12.1525 270.409 -11.0421 334.216 5.07421C429.949 29.2487 479 140.074 458.715 204.627C442.658 255.74 413.833 256.471 420.063 289.391C427.024 326.187 490.714 303.957 495.73 354.953C508.834 488.183 244.699 481.398 181.477 434.204Z" fill="#FFBF00" fill-opacity="0.41"/>
<path d="M377.447 231.887C374.536 232.501 371.524 233.072 368.394 233.598C375.589 264.763 383.457 298.795 390.653 330.018C398.272 325.324 409.767 318.231 417.27 313.609C419.478 317.69 422.534 323.817 423.982 330.603C424.816 351.107 406.126 372.561 391.808 387.698C356.855 421.29 317.252 443.798 263.462 459.373C252.143 462.473 242.008 468.981 234.637 477.961C230.864 482.67 225.029 492.439 221.388 497.441H34.8799C61.3504 469.508 98.4969 429.085 116.383 403.96C138.407 339.1 105.4 291.819 170.552 221.196C181.813 206.294 191.758 193.614 193.952 189.578C198.866 180.467 201.22 150.823 206.441 148.6C207.743 148.044 211.121 149.477 214.923 152.826C236.875 172.029 231.552 208.4 214.923 233.393C211.955 239.024 198.017 263.622 204.408 261.926C227.53 249.071 253.415 233.013 276.815 219.003C296.836 207.171 288.383 210.389 306.196 205.183C331.716 197.768 357.908 190.47 383.911 183.962C399.501 180.291 439.338 169.864 447.148 173.93C464.449 194.843 410.06 227.704 377.447 231.887Z" fill="#EDA28E"/>
<path d="M251.032 464.404C244.743 467.84 239.171 472.447 234.637 477.961C238.337 456.477 212.554 445.216 200.299 445.216C188.043 445.216 176.563 433.531 170.816 429.773C165.068 425.999 147.08 422.241 130.993 427.886C122.467 430.884 101.422 465.53 83.5067 497.455H34.8506C61.3211 469.522 98.4676 429.1 116.354 403.975C128.843 386.455 122.116 303.986 134.532 275.015C139.987 262.277 156.308 240.004 170.508 221.226C171.474 224.662 171.488 227.968 169.66 230.498C163.152 239.536 153.968 261.005 142.868 277.969C131.768 294.919 131.578 378.016 138.203 392.553C145.091 407.66 168.9 405.671 188.804 424.186C198.909 433.59 219.808 438.825 229.387 441.838C236.933 444.178 247.039 458.408 251.032 464.404Z" fill="#E3947F"/>
<path d="M363.509 411.682C358.507 409.181 353.535 406.768 349.382 404.896C334.874 398.388 262.131 405.467 251.031 404.896C239.931 404.326 186.8 395.01 201.249 374.887C216.502 353.637 209.804 275.191 202.726 262.321C211.735 257.67 253.62 233.042 276.77 219.032L385.607 221.211L391.925 228.26C384.832 230.352 377.008 232.165 368.394 233.613L390.652 330.033L417.269 313.624C417.269 313.624 427.96 320.439 428.632 328.453C430.972 356.299 409.65 378.367 363.509 411.682Z" fill="#E3947F"/>
<path d="M413.35 30.4769H234.023C227.062 30.4769 221.402 35.9027 221.402 42.5861V370.324C221.402 377.007 227.047 382.433 234.023 382.433H413.35C420.311 382.433 425.971 377.022 425.971 370.324V42.5861C425.971 35.9027 420.311 30.4769 413.35 30.4769Z" fill="white"/>
<path d="M418.995 20.5907H227.003C219.91 20.5907 214.163 26.382 214.163 33.5481V378.835C214.163 386.001 219.91 391.793 227.003 391.793H418.98C426.073 391.793 431.806 385.987 431.806 378.835V33.5481C431.821 26.382 426.088 20.5907 418.995 20.5907ZM235.676 382.433C228.875 382.433 223.376 377.022 223.376 370.324V42.5861C223.376 35.9027 228.89 30.4769 235.69 30.4769H304.894C305.801 30.4769 306.517 31.1789 306.547 32.071C306.912 40.6264 314.268 47.5877 323.116 47.5877C331.979 47.5877 339.306 40.641 339.671 32.071C339.7 31.1789 340.432 30.4769 341.324 30.4769H410.527C414.564 30.4769 418.147 32.3928 420.384 35.3469C420.618 35.654 420.838 35.9758 421.043 36.3122C421.247 36.6485 421.437 36.9849 421.613 37.3359C421.788 37.6869 421.949 38.0525 422.081 38.4181C422.213 38.7837 422.344 39.164 422.447 39.5588C422.71 40.5241 422.841 41.5331 422.841 42.5861V370.324C422.841 371.377 422.71 372.386 422.447 373.351C422.344 373.731 422.227 374.111 422.081 374.492C421.949 374.857 421.788 375.223 421.613 375.574C421.437 375.925 421.247 376.276 421.043 376.598C420.531 377.431 419.916 378.206 419.214 378.879C418.659 379.435 418.044 379.932 417.401 380.356C416.904 380.692 416.392 380.97 415.865 381.234C415.339 381.497 414.769 381.716 414.198 381.892C413.043 382.243 411.814 382.433 410.542 382.433H235.676Z" fill="#5A6187"/>
<path d="M314.312 33.6944C314.312 28.9122 318.246 25.0513 323.102 25.0513C327.957 25.0513 331.891 28.9268 331.891 33.6944C331.891 38.4767 327.957 42.3522 323.102 42.3522C318.246 42.3522 314.312 38.4767 314.312 33.6944Z" fill="white"/>
<path d="M315.979 33.6945C315.979 29.819 319.167 26.6747 323.116 26.6747C327.05 26.6747 330.238 29.819 330.238 33.6945C330.238 37.57 327.05 40.7143 323.116 40.7143C319.167 40.7143 315.979 37.57 315.979 33.6945Z" fill="#5A6187"/>
<path d="M323.116 30.6087C323.116 29.4972 324.023 28.6051 325.149 28.6051C326.275 28.6051 327.182 29.4972 327.182 30.6087C327.182 31.7201 326.275 32.6122 325.149 32.6122C324.023 32.6122 323.116 31.7201 323.116 30.6087Z" fill="white"/>
<path d="M311.768 110.591H280.047C278.95 110.591 278.058 109.655 278.058 108.499C278.058 107.344 278.95 106.408 280.047 106.408H311.768C312.864 106.408 313.757 107.344 313.757 108.499C313.771 109.655 312.879 110.591 311.768 110.591Z" fill="#C5D1EB"/>
<path d="M397.76 110.591H323.248C322.151 110.591 321.259 109.655 321.259 108.499C321.259 107.344 322.151 106.408 323.248 106.408H397.76C398.857 106.408 399.749 107.344 399.749 108.499C399.749 109.655 398.857 110.591 397.76 110.591Z" fill="#C5D1EB"/>
<path d="M398.155 94.9861H280.047C278.95 94.9861 278.058 94.0501 278.058 92.8948C278.058 91.7395 278.95 90.8035 280.047 90.8035H398.155C399.252 90.8035 400.144 91.7395 400.144 92.8948C400.159 94.0648 399.252 94.9861 398.155 94.9861Z" fill="#C5D1EB"/>
<path d="M258.3 83.7397C250.154 83.7397 243.544 90.3501 243.544 98.496C243.544 101.333 244.348 103.966 245.723 106.218L242.447 114.013L251.763 111.717C253.737 112.696 255.96 113.238 258.3 113.238C266.446 113.238 273.056 106.627 273.056 98.4814C273.056 90.3354 266.446 83.7397 258.3 83.7397Z" fill="#C5D1EB"/>
<path d="M284.083 120.418L285.048 123.416C285.121 123.621 285.311 123.753 285.516 123.753H288.66C289.143 123.753 289.348 124.367 288.953 124.645L286.408 126.488C286.233 126.619 286.16 126.839 286.233 127.043L287.198 130.041C287.344 130.495 286.818 130.875 286.437 130.597L283.893 128.754C283.717 128.623 283.483 128.623 283.308 128.754L280.763 130.597C280.368 130.875 279.856 130.495 280.003 130.041L280.968 127.043C281.041 126.839 280.968 126.619 280.792 126.488L278.248 124.645C277.853 124.367 278.058 123.753 278.54 123.753H281.684C281.904 123.753 282.094 123.621 282.152 123.416L283.118 120.418C283.293 119.95 283.937 119.95 284.083 120.418Z" fill="#D8DCF2"/>
<path d="M297.611 120.418L298.591 123.416C298.664 123.621 298.854 123.753 299.059 123.753H302.203C302.686 123.753 302.876 124.367 302.495 124.645L299.951 126.488C299.775 126.619 299.702 126.839 299.775 127.043L300.755 130.041C300.901 130.495 300.375 130.875 299.995 130.597L297.45 128.754C297.274 128.623 297.04 128.623 296.865 128.754L294.32 130.597C293.925 130.875 293.414 130.495 293.56 130.041L294.525 127.043C294.598 126.839 294.525 126.619 294.35 126.488L291.805 124.645C291.41 124.367 291.615 123.753 292.097 123.753H295.242C295.461 123.753 295.651 123.621 295.71 123.416L296.689 120.418C296.821 119.95 297.465 119.95 297.611 120.418Z" fill="#D8DCF2"/>
<path d="M311.124 120.418L312.089 123.416C312.162 123.621 312.352 123.753 312.557 123.753H315.716C316.199 123.753 316.389 124.367 316.009 124.645L313.464 126.488C313.288 126.619 313.215 126.839 313.288 127.043L314.254 130.041C314.4 130.495 313.873 130.875 313.493 130.597L310.948 128.754C310.773 128.623 310.539 128.623 310.363 128.754L307.819 130.597C307.424 130.875 306.912 130.495 307.058 130.041L308.024 127.043C308.097 126.839 308.024 126.619 307.848 126.488L305.303 124.645C304.908 124.367 305.113 123.753 305.596 123.753H308.74C308.96 123.753 309.15 123.621 309.208 123.416L310.173 120.418C310.334 119.95 310.978 119.95 311.124 120.418Z" fill="#D8DCF2"/>
<path d="M324.652 120.418L325.617 123.416C325.69 123.621 325.88 123.753 326.085 123.753H329.229C329.712 123.753 329.917 124.367 329.522 124.645L326.977 126.488C326.802 126.619 326.728 126.839 326.802 127.043L327.781 130.041C327.928 130.495 327.401 130.875 327.021 130.597L324.476 128.754C324.301 128.623 324.067 128.623 323.891 128.754L321.347 130.597C320.952 130.875 320.44 130.495 320.586 130.041L321.551 127.043C321.624 126.839 321.551 126.619 321.376 126.488L318.831 124.645C318.436 124.367 318.641 123.753 319.124 123.753H322.268C322.487 123.753 322.677 123.621 322.736 123.416L323.701 120.418C323.847 119.95 324.491 119.95 324.652 120.418Z" fill="#D8DCF2"/>
<path d="M338.75 120.418L339.715 123.416C339.788 123.621 339.978 123.753 340.183 123.753H343.327C343.81 123.753 344 124.367 343.62 124.645L341.075 126.488C340.899 126.619 340.826 126.839 340.899 127.043L341.865 130.041C342.011 130.495 341.484 130.875 341.104 130.597L338.56 128.754C338.384 128.623 338.15 128.623 337.975 128.754L335.43 130.597C335.035 130.875 334.523 130.495 334.669 130.041L335.635 127.043C335.708 126.839 335.635 126.619 335.459 126.488L332.914 124.645C332.52 124.367 332.724 123.753 333.207 123.753H336.351C336.571 123.753 336.761 123.621 336.819 123.416L337.784 120.418C337.945 119.95 338.589 119.95 338.75 120.418Z" fill="#D8DCF2"/>
<path d="M311.768 166.822H280.047C278.95 166.822 278.058 165.886 278.058 164.731C278.058 163.575 278.95 162.639 280.047 162.639H311.768C312.864 162.639 313.757 163.575 313.757 164.731C313.771 165.886 312.879 166.822 311.768 166.822Z" fill="#C5D1EB"/>
<path d="M397.76 166.822H323.248C322.151 166.822 321.259 165.886 321.259 164.731C321.259 163.575 322.151 162.639 323.248 162.639H397.76C398.857 162.639 399.749 163.575 399.749 164.731C399.749 165.886 398.857 166.822 397.76 166.822Z" fill="#C5D1EB"/>
<path d="M398.155 151.232H280.047C278.95 151.232 278.058 150.296 278.058 149.141C278.058 147.986 278.95 147.05 280.047 147.05H398.155C399.252 147.05 400.144 147.986 400.144 149.141C400.159 150.296 399.252 151.232 398.155 151.232Z" fill="#C5D1EB"/>
<path d="M258.3 139.971C250.154 139.971 243.544 146.582 243.544 154.728C243.544 157.565 244.348 160.197 245.723 162.449L242.447 170.244L251.763 167.948C253.737 168.928 255.96 169.469 258.3 169.469C266.446 169.469 273.056 162.859 273.056 154.713C273.056 146.582 266.446 139.971 258.3 139.971Z" fill="#C5D1EB"/>
<path d="M284.083 176.65L285.048 179.648C285.121 179.853 285.311 179.984 285.516 179.984H288.66C289.143 179.984 289.348 180.599 288.953 180.876L286.408 182.719C286.233 182.851 286.16 183.07 286.233 183.275L287.198 186.273C287.344 186.726 286.818 187.107 286.437 186.829L283.893 184.986C283.717 184.854 283.483 184.854 283.308 184.986L280.763 186.829C280.368 187.107 279.856 186.726 280.003 186.273L280.968 183.275C281.041 183.07 280.968 182.851 280.792 182.719L278.248 180.876C277.853 180.599 278.058 179.984 278.54 179.984H281.684C281.904 179.984 282.094 179.853 282.152 179.648L283.118 176.65C283.293 176.197 283.937 176.197 284.083 176.65Z" fill="#D8DCF2"/>
<path d="M297.611 176.65L298.591 179.648C298.664 179.853 298.854 179.984 299.059 179.984H302.203C302.686 179.984 302.876 180.599 302.495 180.876L299.951 182.719C299.775 182.851 299.702 183.07 299.775 183.275L300.755 186.273C300.901 186.726 300.375 187.107 299.995 186.829L297.45 184.986C297.274 184.854 297.04 184.854 296.865 184.986L294.32 186.829C293.925 187.107 293.414 186.726 293.56 186.273L294.525 183.275C294.598 183.07 294.525 182.851 294.35 182.719L291.805 180.876C291.41 180.599 291.615 179.984 292.097 179.984H295.242C295.461 179.984 295.651 179.853 295.71 179.648L296.689 176.65C296.821 176.197 297.465 176.197 297.611 176.65Z" fill="#D8DCF2"/>
<path d="M311.124 176.65L312.089 179.648C312.162 179.853 312.352 179.984 312.557 179.984H315.716C316.199 179.984 316.389 180.599 316.009 180.876L313.464 182.719C313.288 182.851 313.215 183.07 313.288 183.275L314.254 186.273C314.4 186.726 313.873 187.107 313.493 186.829L310.948 184.986C310.773 184.854 310.539 184.854 310.363 184.986L307.819 186.829C307.424 187.107 306.912 186.726 307.058 186.273L308.024 183.275C308.097 183.07 308.024 182.851 307.848 182.719L305.303 180.876C304.908 180.599 305.113 179.984 305.596 179.984H308.74C308.96 179.984 309.15 179.853 309.208 179.648L310.173 176.65C310.334 176.197 310.978 176.197 311.124 176.65Z" fill="#D8DCF2"/>
<path d="M324.652 176.65L325.617 179.648C325.69 179.853 325.88 179.984 326.085 179.984H329.229C329.712 179.984 329.917 180.599 329.522 180.876L326.977 182.719C326.802 182.851 326.728 183.07 326.802 183.275L327.781 186.273C327.928 186.726 327.401 187.107 327.021 186.829L324.476 184.986C324.301 184.854 324.067 184.854 323.891 184.986L321.347 186.829C320.952 187.107 320.44 186.726 320.586 186.273L321.551 183.275C321.624 183.07 321.551 182.851 321.376 182.719L318.831 180.876C318.436 180.599 318.641 179.984 319.124 179.984H322.268C322.487 179.984 322.677 179.853 322.736 179.648L323.701 176.65C323.847 176.197 324.491 176.197 324.652 176.65Z" fill="#D8DCF2"/>
<path d="M338.75 176.65L339.715 179.648C339.788 179.853 339.978 179.984 340.183 179.984H343.327C343.81 179.984 344 180.599 343.62 180.876L341.075 182.719C340.899 182.851 340.826 183.07 340.899 183.275L341.865 186.273C342.011 186.726 341.484 187.107 341.104 186.829L338.56 184.986C338.384 184.854 338.15 184.854 337.975 184.986L335.43 186.829C335.035 187.107 334.523 186.726 334.669 186.273L335.635 183.275C335.708 183.07 335.635 182.851 335.459 182.719L332.914 180.876C332.52 180.599 332.724 179.984 333.207 179.984H336.351C336.571 179.984 336.761 179.853 336.819 179.648L337.784 176.65C337.945 176.197 338.589 176.197 338.75 176.65Z" fill="#D8DCF2"/>
<path d="M311.768 223.054H280.047C278.95 223.054 278.058 222.118 278.058 220.962C278.058 219.807 278.95 218.871 280.047 218.871H311.768C312.864 218.871 313.757 219.807 313.757 220.962C313.771 222.118 312.879 223.054 311.768 223.054Z" fill="#C5D1EB"/>
<path d="M397.76 223.054H323.248C322.151 223.054 321.259 222.118 321.259 220.962C321.259 219.807 322.151 218.871 323.248 218.871H397.76C398.857 218.871 399.749 219.807 399.749 220.962C399.749 222.118 398.857 223.054 397.76 223.054Z" fill="#C5D1EB"/>
<path d="M398.155 207.464H280.047C278.95 207.464 278.058 206.528 278.058 205.373C278.058 204.217 278.95 203.281 280.047 203.281H398.155C399.252 203.281 400.144 204.217 400.144 205.373C400.159 206.528 399.252 207.464 398.155 207.464Z" fill="#C5D1EB"/>
<path d="M258.3 196.203C250.154 196.203 243.544 202.813 243.544 210.959C243.544 213.796 244.348 216.429 245.723 218.681L242.447 226.476L251.763 224.18C253.737 225.16 255.96 225.701 258.3 225.701C266.446 225.701 273.056 219.09 273.056 210.944C273.056 202.813 266.446 196.203 258.3 196.203Z" fill="#C5D1EB"/>
<path d="M284.083 232.881L285.048 235.879C285.121 236.084 285.311 236.216 285.516 236.216H288.66C289.143 236.216 289.348 236.83 288.953 237.108L286.408 238.951C286.233 239.082 286.16 239.302 286.233 239.506L287.198 242.504C287.344 242.958 286.818 243.338 286.437 243.06L283.893 241.217C283.717 241.086 283.483 241.086 283.308 241.217L280.763 243.06C280.368 243.338 279.856 242.958 280.003 242.504L280.968 239.506C281.041 239.302 280.968 239.082 280.792 238.951L278.248 237.108C277.853 236.83 278.058 236.216 278.54 236.216H281.684C281.904 236.216 282.094 236.084 282.152 235.879L283.118 232.881C283.293 232.428 283.937 232.428 284.083 232.881Z" fill="#D8DCF2"/>
<path d="M297.611 232.882L298.591 235.88C298.664 236.084 298.854 236.216 299.059 236.216H302.203C302.686 236.216 302.876 236.83 302.495 237.108L299.951 238.951C299.775 239.082 299.702 239.302 299.775 239.506L300.755 242.505C300.901 242.958 300.375 243.338 299.995 243.06L297.45 241.218C297.274 241.086 297.04 241.086 296.865 241.218L294.32 243.06C293.925 243.338 293.414 242.958 293.56 242.505L294.525 239.506C294.598 239.302 294.525 239.082 294.35 238.951L291.805 237.108C291.41 236.83 291.615 236.216 292.097 236.216H295.242C295.461 236.216 295.651 236.084 295.71 235.88L296.689 232.882C296.821 232.428 297.465 232.428 297.611 232.882Z" fill="#D8DCF2"/>
<path d="M311.124 232.882L312.089 235.88C312.162 236.084 312.352 236.216 312.557 236.216H315.716C316.199 236.216 316.389 236.83 316.009 237.108L313.464 238.951C313.288 239.082 313.215 239.302 313.288 239.506L314.254 242.505C314.4 242.958 313.873 243.338 313.493 243.06L310.948 241.218C310.773 241.086 310.539 241.086 310.363 241.218L307.819 243.06C307.424 243.338 306.912 242.958 307.058 242.505L308.024 239.506C308.097 239.302 308.024 239.082 307.848 238.951L305.303 237.108C304.908 236.83 305.113 236.216 305.596 236.216H308.74C308.96 236.216 309.15 236.084 309.208 235.88L310.173 232.882C310.334 232.428 310.978 232.428 311.124 232.882Z" fill="#D8DCF2"/>
<path d="M324.652 232.882L325.617 235.88C325.69 236.084 325.88 236.216 326.085 236.216H329.229C329.712 236.216 329.917 236.83 329.522 237.108L326.977 238.951C326.802 239.082 326.728 239.302 326.802 239.506L327.781 242.505C327.928 242.958 327.401 243.338 327.021 243.06L324.476 241.218C324.301 241.086 324.067 241.086 323.891 241.218L321.347 243.06C320.952 243.338 320.44 242.958 320.586 242.505L321.551 239.506C321.624 239.302 321.551 239.082 321.376 238.951L318.831 237.108C318.436 236.83 318.641 236.216 319.124 236.216H322.268C322.487 236.216 322.677 236.084 322.736 235.88L323.701 232.882C323.847 232.428 324.491 232.428 324.652 232.882Z" fill="#D8DCF2"/>
<path d="M338.75 232.882L339.715 235.88C339.788 236.084 339.978 236.216 340.183 236.216H343.327C343.81 236.216 344 236.83 343.62 237.108L341.075 238.951C340.899 239.082 340.826 239.302 340.899 239.506L341.865 242.505C342.011 242.958 341.484 243.338 341.104 243.06L338.56 241.218C338.384 241.086 338.15 241.086 337.975 241.218L335.43 243.06C335.035 243.338 334.523 242.958 334.669 242.505L335.635 239.506C335.708 239.302 335.635 239.082 335.459 238.951L332.914 237.108C332.52 236.83 332.724 236.216 333.207 236.216H336.351C336.571 236.216 336.761 236.084 336.819 235.88L337.784 232.882C337.945 232.428 338.589 232.428 338.75 232.882Z" fill="#D8DCF2"/>
<path d="M311.768 279.3H280.047C278.95 279.3 278.058 278.364 278.058 277.209C278.058 276.053 278.95 275.117 280.047 275.117H311.768C312.864 275.117 313.757 276.053 313.757 277.209C313.771 278.364 312.879 279.3 311.768 279.3Z" fill="#C5D1EB"/>
<path d="M397.76 279.3H323.248C322.151 279.3 321.259 278.364 321.259 277.209C321.259 276.053 322.151 275.117 323.248 275.117H397.76C398.857 275.117 399.749 276.053 399.749 277.209C399.749 278.364 398.857 279.3 397.76 279.3Z" fill="#C5D1EB"/>
<path d="M398.155 263.71H280.047C278.95 263.71 278.058 262.774 278.058 261.619C278.058 260.464 278.95 259.528 280.047 259.528H398.155C399.252 259.528 400.144 260.464 400.144 261.619C400.159 262.774 399.252 263.71 398.155 263.71Z" fill="#C5D1EB"/>
<path d="M258.3 252.449C250.154 252.449 243.544 259.06 243.544 267.206C243.544 270.043 244.348 272.675 245.723 274.927L242.447 282.722L251.763 280.426C253.737 281.406 255.96 281.962 258.3 281.962C266.446 281.962 273.056 275.351 273.056 267.206C273.056 259.045 266.446 252.449 258.3 252.449Z" fill="#C5D1EB"/>
<path d="M284.083 303.431L285.048 306.429C285.121 306.633 285.311 306.765 285.516 306.765H288.66C289.143 306.765 289.348 307.379 288.953 307.657L286.408 309.5C286.233 309.631 286.16 309.851 286.233 310.056L287.198 313.054C287.344 313.507 286.818 313.887 286.437 313.609L283.893 311.767C283.717 311.635 283.483 311.635 283.308 311.767L280.763 313.609C280.368 313.887 279.856 313.507 280.003 313.054L280.968 310.056C281.041 309.851 280.968 309.631 280.792 309.5L278.248 307.657C277.853 307.379 278.058 306.765 278.54 306.765H281.684C281.904 306.765 282.094 306.633 282.152 306.429L283.118 303.431C283.293 302.977 283.937 302.977 284.083 303.431Z" fill="#D8DCF2"/>
<path d="M297.611 303.431L298.591 306.429C298.664 306.633 298.854 306.765 299.059 306.765H302.203C302.686 306.765 302.876 307.379 302.495 307.657L299.951 309.5C299.775 309.631 299.702 309.851 299.775 310.056L300.755 313.054C300.901 313.507 300.375 313.887 299.995 313.609L297.45 311.767C297.274 311.635 297.04 311.635 296.865 311.767L294.32 313.609C293.925 313.887 293.414 313.507 293.56 313.054L294.525 310.056C294.598 309.851 294.525 309.631 294.35 309.5L291.805 307.657C291.41 307.379 291.615 306.765 292.097 306.765H295.242C295.461 306.765 295.651 306.633 295.71 306.429L296.689 303.431C296.821 302.977 297.465 302.977 297.611 303.431Z" fill="#D8DCF2"/>
<path d="M311.124 303.431L312.089 306.429C312.162 306.633 312.352 306.765 312.557 306.765H315.716C316.199 306.765 316.389 307.379 316.009 307.657L313.464 309.5C313.288 309.631 313.215 309.851 313.288 310.056L314.254 313.054C314.4 313.507 313.873 313.887 313.493 313.609L310.948 311.767C310.773 311.635 310.539 311.635 310.363 311.767L307.819 313.609C307.424 313.887 306.912 313.507 307.058 313.054L308.024 310.056C308.097 309.851 308.024 309.631 307.848 309.5L305.303 307.657C304.908 307.379 305.113 306.765 305.596 306.765H308.74C308.96 306.765 309.15 306.633 309.208 306.429L310.173 303.431C310.334 302.977 310.978 302.977 311.124 303.431Z" fill="#D8DCF2"/>
<path d="M324.652 303.431L325.617 306.429C325.69 306.633 325.88 306.765 326.085 306.765H329.229C329.712 306.765 329.917 307.379 329.522 307.657L326.977 309.5C326.802 309.631 326.728 309.851 326.802 310.056L327.781 313.054C327.928 313.507 327.401 313.887 327.021 313.609L324.476 311.767C324.301 311.635 324.067 311.635 323.891 311.767L321.347 313.609C320.952 313.887 320.44 313.507 320.586 313.054L321.551 310.056C321.624 309.851 321.551 309.631 321.376 309.5L318.831 307.657C318.436 307.379 318.641 306.765 319.124 306.765H322.268C322.487 306.765 322.677 306.633 322.736 306.429L323.701 303.431C323.847 302.977 324.491 302.977 324.652 303.431Z" fill="#D8DCF2"/>
<path d="M338.75 303.431L339.715 306.429C339.788 306.633 339.978 306.765 340.183 306.765H343.327C343.81 306.765 344 307.379 343.62 307.657L341.075 309.5C340.899 309.631 340.826 309.851 340.899 310.056L341.865 313.054C342.011 313.507 341.484 313.887 341.104 313.609L338.56 311.767C338.384 311.635 338.15 311.635 337.975 311.767L335.43 313.609C335.035 313.887 334.523 313.507 334.669 313.054L335.635 310.056C335.708 309.851 335.635 309.631 335.459 309.5L332.914 307.657C332.52 307.379 332.724 306.765 333.207 306.765H336.351C336.571 306.765 336.761 306.633 336.819 306.429L337.784 303.431C337.945 302.977 338.589 302.977 338.75 303.431Z" fill="#D8DCF2"/>
<path d="M311.768 335.532H280.047C278.95 335.532 278.058 334.596 278.058 333.441C278.058 332.285 278.95 331.349 280.047 331.349H311.768C312.864 331.349 313.757 332.285 313.757 333.441C313.771 334.596 312.879 335.532 311.768 335.532Z" fill="#C5D1EB"/>
<path d="M397.76 335.532H323.248C322.151 335.532 321.259 334.596 321.259 333.441C321.259 332.285 322.151 331.349 323.248 331.349H397.76C398.857 331.349 399.749 332.285 399.749 333.441C399.749 334.596 398.857 335.532 397.76 335.532Z" fill="#C5D1EB"/>
<path d="M398.155 319.942H280.047C278.95 319.942 278.058 319.006 278.058 317.851C278.058 316.695 278.95 315.759 280.047 315.759H398.155C399.252 315.759 400.144 316.695 400.144 317.851C400.159 319.006 399.252 319.942 398.155 319.942Z" fill="#C5D1EB"/>
<path d="M258.3 308.681C250.154 308.681 243.544 315.291 243.544 323.437C243.544 326.274 244.348 328.907 245.723 331.159L242.447 338.954L251.763 336.658C253.737 337.638 255.96 338.179 258.3 338.179C266.446 338.179 273.056 331.568 273.056 323.422C273.056 315.291 266.446 308.681 258.3 308.681Z" fill="#C5D1EB"/>
<path d="M284.083 345.359L285.048 348.358C285.121 348.562 285.311 348.694 285.516 348.694H288.66C289.143 348.694 289.348 349.308 288.953 349.586L286.408 351.429C286.233 351.56 286.16 351.78 286.233 351.984L287.198 354.982C287.344 355.436 286.818 355.816 286.437 355.538L283.893 353.695C283.717 353.564 283.483 353.564 283.308 353.695L280.763 355.538C280.368 355.816 279.856 355.436 280.003 354.982L280.968 351.984C281.041 351.78 280.968 351.56 280.792 351.429L278.248 349.586C277.853 349.308 278.058 348.694 278.54 348.694H281.684C281.904 348.694 282.094 348.562 282.152 348.358L283.118 345.359C283.293 344.906 283.937 344.906 284.083 345.359Z" fill="#D8DCF2"/>
<path d="M297.611 345.359L298.591 348.358C298.664 348.562 298.854 348.694 299.059 348.694H302.203C302.686 348.694 302.876 349.308 302.495 349.586L299.951 351.429C299.775 351.56 299.702 351.78 299.775 351.984L300.755 354.982C300.901 355.436 300.375 355.816 299.995 355.538L297.45 353.695C297.274 353.564 297.04 353.564 296.865 353.695L294.32 355.538C293.925 355.816 293.414 355.436 293.56 354.982L294.525 351.984C294.598 351.78 294.525 351.56 294.35 351.429L291.805 349.586C291.41 349.308 291.615 348.694 292.097 348.694H295.242C295.461 348.694 295.651 348.562 295.71 348.358L296.689 345.359C296.821 344.906 297.465 344.906 297.611 345.359Z" fill="#D8DCF2"/>
<path d="M311.124 345.359L312.089 348.358C312.162 348.562 312.352 348.694 312.557 348.694H315.716C316.199 348.694 316.389 349.308 316.009 349.586L313.464 351.429C313.288 351.56 313.215 351.78 313.288 351.984L314.254 354.982C314.4 355.436 313.873 355.816 313.493 355.538L310.948 353.695C310.773 353.564 310.539 353.564 310.363 353.695L307.819 355.538C307.424 355.816 306.912 355.436 307.058 354.982L308.024 351.984C308.097 351.78 308.024 351.56 307.848 351.429L305.303 349.586C304.908 349.308 305.113 348.694 305.596 348.694H308.74C308.96 348.694 309.15 348.562 309.208 348.358L310.173 345.359C310.334 344.906 310.978 344.906 311.124 345.359Z" fill="#D8DCF2"/>
<path d="M324.652 345.359L325.617 348.358C325.69 348.562 325.88 348.694 326.085 348.694H329.229C329.712 348.694 329.917 349.308 329.522 349.586L326.977 351.429C326.802 351.56 326.728 351.78 326.802 351.984L327.781 354.982C327.928 355.436 327.401 355.816 327.021 355.538L324.476 353.695C324.301 353.564 324.067 353.564 323.891 353.695L321.347 355.538C320.952 355.816 320.44 355.436 320.586 354.982L321.551 351.984C321.624 351.78 321.551 351.56 321.376 351.429L318.831 349.586C318.436 349.308 318.641 348.694 319.124 348.694H322.268C322.487 348.694 322.677 348.562 322.736 348.358L323.701 345.359C323.847 344.906 324.491 344.906 324.652 345.359Z" fill="#D8DCF2"/>
<path d="M338.75 345.359L339.715 348.358C339.788 348.562 339.978 348.694 340.183 348.694H343.327C343.81 348.694 344 349.308 343.62 349.586L341.075 351.429C340.899 351.56 340.826 351.78 340.899 351.984L341.865 354.982C342.011 355.436 341.484 355.816 341.104 355.538L338.56 353.695C338.384 353.564 338.15 353.564 337.975 353.695L335.43 355.538C335.035 355.816 334.523 355.436 334.669 354.982L335.635 351.984C335.708 351.78 335.635 351.56 335.459 351.429L332.914 349.586C332.52 349.308 332.724 348.694 333.207 348.694H336.351C336.571 348.694 336.761 348.562 336.819 348.358L337.784 345.359C337.945 344.906 338.589 344.906 338.75 345.359Z" fill="#D8DCF2"/>
<path d="M438.577 283.921C451.974 291.161 452.778 314.297 432.932 320.951C413.438 327.517 379.421 340.358 375.355 321.638C372.679 310.772 382.492 301.252 391.179 295.972C359.59 299.453 362.997 272.748 386.309 260.522C354.676 267.703 347.525 240.589 375.121 226.374C389.907 219.208 434.278 205.533 436.603 205.519C448.522 205.446 453.231 209.716 455.644 220.787C457.692 230.322 450.306 238.029 440.698 243.557C458.701 247.799 462.079 274.518 438.577 283.921Z" fill="#EDA28E"/>
<path d="M384.935 233.51C387.772 238.717 388.839 244.874 388.225 250.343C388.02 252.201 386.748 253.663 385.154 253.926C379.743 254.833 367.458 256.178 366.04 249.802C364.08 240.954 375.18 234.461 380.474 231.902C382.112 231.127 383.999 231.785 384.935 233.51Z" fill="#FCB5A2"/>
<path d="M391.72 265.933C396.634 270.525 398.111 277.721 395.347 285.121C394.85 286.437 393.812 287.358 392.583 287.578C387.596 288.47 374.288 290.225 372.811 283.57C370.734 274.225 383.267 267.483 388.093 265.275C389.322 264.719 390.697 264.983 391.72 265.933Z" fill="#FCB5A2"/>
<path d="M400.495 301.5C404.809 306.707 405.906 313.565 404.049 319.839C403.61 321.331 402.499 322.428 401.153 322.677C396.064 323.583 382.975 325.236 381.512 318.64C379.479 309.471 391.472 302.831 396.502 300.476C397.892 299.833 399.471 300.257 400.495 301.5Z" fill="#FCB5A2"/>
<path d="M440.654 285.252C430.417 289.42 402.059 296.367 386.572 299.16C388.034 298.034 389.57 296.966 391.164 295.972L438.562 283.936C439.308 284.331 439.996 284.77 440.654 285.252Z" fill="#E3947F"/>
<path d="M444.34 244.83C429.379 250.168 402.031 258.065 382.507 262.979C383.736 262.131 384.993 261.312 386.309 260.522L440.859 243.587C442.088 243.908 443.243 244.318 444.34 244.83Z" fill="#E3947F"/>
<path d="M275.937 46.8711H244.655C243.631 46.8711 242.812 46.0375 242.812 45.0284V44.8383C242.812 43.8146 243.646 42.9956 244.655 42.9956H275.937C276.961 42.9956 277.78 43.8292 277.78 44.8383V45.0284C277.795 46.0375 276.961 46.8711 275.937 46.8711Z" fill="#D8DCF2"/>
<path d="M275.937 57.0937H244.655C243.631 57.0937 242.812 56.2601 242.812 55.251V55.0608C242.812 54.0371 243.646 53.2181 244.655 53.2181H275.937C276.961 53.2181 277.78 54.0517 277.78 55.0608V55.251C277.795 56.2747 276.961 57.0937 275.937 57.0937Z" fill="#D8DCF2"/>
<path d="M275.937 67.331H244.655C243.631 67.331 242.812 66.4974 242.812 65.4883V65.2981C242.812 64.2744 243.646 63.4554 244.655 63.4554H275.937C276.961 63.4554 277.78 64.289 277.78 65.2981V65.4883C277.795 66.4974 276.961 67.331 275.937 67.331Z" fill="#D8DCF2"/>
<path d="M402.352 98.4815C402.294 98.0428 402.264 97.604 402.264 97.1653V75.2722C402.264 69.2323 407.251 64.3477 413.394 64.3477H635.395C641.538 64.3477 646.525 69.2469 646.525 75.2722V97.1653C646.525 103.205 641.538 108.09 635.395 108.09H417.269C404.414 112.843 387.274 104.273 387.274 104.273C397.76 103.439 402.411 101.714 402.352 98.4815Z" fill="#D1D3D4"/>
<path d="M398.857 92.0905C398.798 91.6518 398.769 91.213 398.769 90.7743V68.8812C398.769 62.8413 403.668 57.9567 409.694 57.9567H627.688C633.728 57.9567 638.613 62.8559 638.613 68.8812V90.7743C638.613 96.8142 633.713 101.699 627.688 101.699H413.496C400.875 106.452 387.728 104.302 387.728 104.302C398.023 103.454 398.915 95.3225 398.857 92.0905Z" fill="#4DC7F4"/>
<path d="M614.131 92.9241C621.506 92.9241 627.484 86.9461 627.484 79.5719C627.484 72.1976 621.506 66.2196 614.131 66.2196C606.757 66.2196 600.779 72.1976 600.779 79.5719C600.779 86.9461 606.757 92.9241 614.131 92.9241Z" fill="white"/>
<path d="M613.926 81.912C616.836 81.912 619.191 79.5575 619.191 76.6472C619.191 73.7369 616.836 71.3823 613.926 71.3823C611.016 71.3823 608.661 73.7369 608.661 76.6472C608.661 79.5575 611.016 81.912 613.926 81.912Z" fill="#4DC7F4"/>
<path d="M618.753 81.9558C618.328 81.6194 617.743 81.634 617.319 81.9704C616.413 82.7163 615.257 83.155 613.985 83.155C612.756 83.155 611.63 82.7455 610.738 82.0435C610.314 81.7071 609.715 81.7218 609.305 82.0728C608.237 82.9795 607.594 84.2957 607.594 86.0068V86.1677C607.594 87.0451 608.311 87.7617 609.188 87.7617H619.03C619.908 87.7617 620.624 87.0451 620.624 86.1677V86.0068C620.654 84.2226 619.923 82.8771 618.753 81.9558Z" fill="#4DC7F4"/>
<path d="M585.131 85.1294H499.24C498.407 85.1294 497.749 84.5444 497.749 83.8132C497.749 83.0819 498.421 82.4969 499.24 82.4969H585.131C585.964 82.4969 586.622 83.0819 586.622 83.8132C586.637 84.5298 585.964 85.1294 585.131 85.1294Z" fill="white"/>
<path d="M535.977 93.3044H434.351C433.371 93.3044 432.581 92.7194 432.581 91.9882C432.581 91.257 433.371 90.672 434.351 90.672H535.977C536.957 90.672 537.747 91.257 537.747 91.9882C537.747 92.7194 536.957 93.3044 535.977 93.3044Z" fill="white"/>
<path d="M491.753 85.1294H456.902C456.566 85.1294 456.288 84.5444 456.288 83.8132C456.288 83.0819 456.566 82.4969 456.902 82.4969H491.753C492.089 82.4969 492.367 83.0819 492.367 83.8132C492.367 84.5298 492.089 85.1294 491.753 85.1294Z" fill="white"/>
<path d="M585.54 93.3044H550.69C550.353 93.3044 550.075 92.7194 550.075 91.9882C550.075 91.257 550.353 90.672 550.69 90.672H585.54C585.876 90.672 586.154 91.257 586.154 91.9882C586.14 92.7194 585.876 93.3044 585.54 93.3044Z" fill="white"/>
<path d="M451.666 85.1294H432.903C432.728 85.1294 432.581 84.5444 432.581 83.8132C432.581 83.0819 432.728 82.4969 432.903 82.4969H451.666C451.842 82.4969 451.988 83.0819 451.988 83.8132C451.988 84.5298 451.842 85.1294 451.666 85.1294Z" fill="white"/>
<path d="M524.701 64.8887L525.667 67.8868C525.74 68.0915 525.93 68.2231 526.135 68.2231H529.279C529.761 68.2231 529.966 68.8374 529.571 69.1152L527.027 70.958C526.851 71.0896 526.778 71.3089 526.851 71.5137L527.816 74.5117C527.963 74.9651 527.436 75.3453 527.056 75.0675L524.511 73.2248C524.336 73.0931 524.102 73.0931 523.926 73.2248L521.382 75.0675C520.987 75.3453 520.475 74.9651 520.621 74.5117L521.586 71.5137C521.659 71.3089 521.586 71.0896 521.411 70.958L518.866 69.1152C518.471 68.8374 518.676 68.2231 519.159 68.2231H522.303C522.522 68.2231 522.712 68.0915 522.771 67.8868L523.736 64.8887C523.912 64.4354 524.555 64.4354 524.701 64.8887Z" fill="white"/>
<path d="M538.215 64.8887L539.18 67.8868C539.253 68.0915 539.443 68.2231 539.648 68.2231H542.792C543.275 68.2231 543.479 68.8374 543.085 69.1152L540.54 70.958C540.364 71.0896 540.291 71.3089 540.364 71.5137L541.33 74.5117C541.476 74.9651 540.949 75.3453 540.569 75.0675L538.024 73.2248C537.849 73.0931 537.615 73.0931 537.439 73.2248L534.895 75.0675C534.5 75.3453 533.988 74.9651 534.134 74.5117L535.114 71.5137C535.187 71.3089 535.114 71.0896 534.939 70.958L532.394 69.1152C531.999 68.8374 532.204 68.2231 532.686 68.2231H535.831C536.05 68.2231 536.24 68.0915 536.299 67.8868L537.264 64.8887C537.425 64.4354 538.068 64.4354 538.215 64.8887Z" fill="white"/>
<path d="M551.742 64.8887L552.708 67.8868C552.781 68.0915 552.971 68.2231 553.176 68.2231H556.32C556.802 68.2231 557.007 68.8374 556.612 69.1152L554.068 70.958C553.892 71.0896 553.819 71.3089 553.892 71.5137L554.857 74.5117C555.004 74.9651 554.477 75.3453 554.097 75.0675L551.552 73.2248C551.377 73.0931 551.143 73.0931 550.967 73.2248L548.423 75.0675C548.028 75.3453 547.516 74.9651 547.662 74.5117L548.627 71.5137C548.7 71.3089 548.627 71.0896 548.452 70.958L545.907 69.1152C545.512 68.8374 545.717 68.2231 546.2 68.2231H549.344C549.563 68.2231 549.753 68.0915 549.812 67.8868L550.777 64.8887C550.938 64.4354 551.596 64.4354 551.742 64.8887Z" fill="white"/>
<path d="M565.255 64.8887L566.221 67.8868C566.294 68.0915 566.484 68.2231 566.688 68.2231H569.833C570.315 68.2231 570.506 68.8374 570.125 69.1152L567.581 70.958C567.405 71.0896 567.332 71.3089 567.405 71.5137L568.37 74.5117C568.517 74.9651 567.99 75.3453 567.61 75.0675L565.065 73.2248C564.89 73.0931 564.656 73.0931 564.48 73.2248L561.935 75.0675C561.541 75.3453 561.029 74.9651 561.175 74.5117L562.155 71.5137C562.228 71.3089 562.155 71.0896 561.979 70.958L559.435 69.1152C559.04 68.8374 559.245 68.2231 559.727 68.2231H562.871C563.091 68.2231 563.281 68.0915 563.339 67.8868L564.305 64.8887C564.466 64.4354 565.109 64.4354 565.255 64.8887Z" fill="white"/>
<path d="M579.354 64.8887L580.319 67.8868C580.392 68.0915 580.582 68.2231 580.787 68.2231H583.931C584.414 68.2231 584.618 68.8374 584.224 69.1152L581.679 70.958C581.503 71.0896 581.43 71.3089 581.503 71.5137L582.469 74.5117C582.615 74.9651 582.088 75.3453 581.708 75.0675L579.164 73.2248C578.988 73.0931 578.754 73.0931 578.579 73.2248L576.034 75.0675C575.639 75.3453 575.127 74.9651 575.273 74.5117L576.239 71.5137C576.312 71.3089 576.239 71.0896 576.063 70.958L573.518 69.1152C573.124 68.8374 573.328 68.2231 573.811 68.2231H576.955C577.175 68.2231 577.365 68.0915 577.423 67.8868L578.388 64.8887C578.564 64.4354 579.207 64.4354 579.354 64.8887Z" fill="white"/>
<path d="M345.331 305.61C345.272 305.171 345.243 304.732 345.243 304.294V282.401C345.243 276.361 350.23 271.476 356.372 271.476H578.374C584.516 271.476 589.503 276.375 589.503 282.401V304.294C589.503 310.334 584.516 315.218 578.374 315.218H360.233C347.378 319.971 330.238 311.401 330.238 311.401C340.724 310.568 345.389 308.842 345.331 305.61Z" fill="#D1D3D4"/>
<path d="M341.836 299.219C341.777 298.78 341.748 298.342 341.748 297.903V276.01C341.748 269.97 346.647 265.085 352.673 265.085H570.667C576.707 265.085 581.592 269.984 581.592 276.01V297.903C581.592 303.943 576.692 308.827 570.667 308.827H356.475C343.854 313.58 330.707 311.431 330.707 311.431C341.002 310.582 341.894 302.451 341.836 299.219Z" fill="#4DC7F4"/>
<path d="M570.109 289.83C571.803 282.654 567.359 275.462 560.183 273.767C553.006 272.073 545.814 276.517 544.12 283.693C542.425 290.87 546.869 298.062 554.046 299.756C561.223 301.451 568.414 297.007 570.109 289.83Z" fill="white"/>
<path d="M556.905 289.04C559.815 289.04 562.17 286.686 562.17 283.775C562.17 280.865 559.815 278.511 556.905 278.511C553.995 278.511 551.64 280.865 551.64 283.775C551.626 286.686 553.995 289.04 556.905 289.04Z" fill="#4DC7F4"/>
<path d="M561.731 289.084C561.307 288.748 560.707 288.762 560.298 289.099C559.391 289.845 558.236 290.283 556.963 290.283C555.735 290.283 554.609 289.874 553.717 289.172C553.293 288.835 552.693 288.85 552.284 289.201C551.216 290.108 550.573 291.424 550.573 293.135V293.296C550.573 294.173 551.289 294.89 552.167 294.89H562.009C562.886 294.89 563.603 294.173 563.603 293.296V293.135C563.618 291.351 562.901 290.005 561.731 289.084Z" fill="#4DC7F4"/>
<path d="M528.11 292.258H442.219C441.386 292.258 440.728 291.673 440.728 290.941C440.728 290.21 441.4 289.625 442.219 289.625H528.11C528.943 289.625 529.601 290.21 529.601 290.941C529.601 291.658 528.943 292.258 528.11 292.258Z" fill="white"/>
<path d="M478.956 300.433H377.33C376.35 300.433 375.56 299.848 375.56 299.117C375.56 298.385 376.35 297.8 377.33 297.8H478.956C479.936 297.8 480.726 298.385 480.726 299.117C480.726 299.848 479.936 300.433 478.956 300.433Z" fill="white"/>
<path d="M434.731 292.258H399.881C399.544 292.258 399.267 291.673 399.267 290.941C399.267 290.21 399.544 289.625 399.881 289.625H434.731C435.068 289.625 435.345 290.21 435.345 290.941C435.345 291.658 435.068 292.258 434.731 292.258Z" fill="white"/>
<path d="M528.519 300.433H493.668C493.332 300.433 493.054 299.848 493.054 299.117C493.054 298.385 493.332 297.8 493.668 297.8H528.519C528.855 297.8 529.133 298.385 529.133 299.117C529.118 299.848 528.855 300.433 528.519 300.433Z" fill="white"/>
<path d="M394.631 292.258H375.867C375.692 292.258 375.545 291.673 375.545 290.941C375.545 290.21 375.692 289.625 375.867 289.625H394.631C394.806 289.625 394.952 290.21 394.952 290.941C394.967 291.658 394.821 292.258 394.631 292.258Z" fill="white"/>
<path d="M467.68 272.017L468.66 275.015C468.733 275.22 468.923 275.352 469.128 275.352H472.272C472.755 275.352 472.96 275.966 472.565 276.244L470.02 278.086C469.845 278.218 469.772 278.437 469.845 278.642L470.81 281.64C470.956 282.094 470.43 282.474 470.05 282.196L467.505 280.353C467.329 280.222 467.095 280.222 466.92 280.353L464.375 282.196C463.98 282.474 463.468 282.094 463.615 281.64L464.58 278.642C464.653 278.437 464.58 278.218 464.404 278.086L461.86 276.244C461.465 275.966 461.67 275.352 462.152 275.352H465.297C465.516 275.352 465.706 275.22 465.765 275.015L466.744 272.017C466.876 271.564 467.534 271.564 467.68 272.017Z" fill="white"/>
<path d="M481.193 272.017L482.158 275.015C482.232 275.22 482.422 275.352 482.626 275.352H485.771C486.253 275.352 486.444 275.966 486.063 276.244L483.519 278.086C483.343 278.218 483.27 278.437 483.343 278.642L484.308 281.64C484.455 282.094 483.928 282.474 483.548 282.196L481.003 280.353C480.828 280.222 480.594 280.222 480.418 280.353L477.873 282.196C477.479 282.474 476.967 282.094 477.113 281.64L478.078 278.642C478.151 278.437 478.078 278.218 477.903 278.086L475.358 276.244C474.963 275.966 475.168 275.352 475.651 275.352H478.795C479.014 275.352 479.204 275.22 479.263 275.015L480.228 272.017C480.404 271.564 481.047 271.564 481.193 272.017Z" fill="white"/>
<path d="M494.706 272.017L495.672 275.015C495.745 275.22 495.935 275.352 496.14 275.352H499.284C499.767 275.352 499.971 275.966 499.576 276.244L497.032 278.086C496.856 278.218 496.783 278.437 496.856 278.642L497.836 281.64C497.982 282.094 497.456 282.474 497.076 282.196L494.531 280.353C494.355 280.222 494.121 280.222 493.946 280.353L491.401 282.196C491.006 282.474 490.495 282.094 490.641 281.64L491.606 278.642C491.679 278.437 491.606 278.218 491.431 278.086L488.886 276.244C488.491 275.966 488.696 275.352 489.178 275.352H492.323C492.542 275.352 492.732 275.22 492.791 275.015L493.756 272.017C493.917 271.564 494.56 271.564 494.706 272.017Z" fill="white"/>
<path d="M508.234 272.017L509.199 275.015C509.273 275.22 509.463 275.352 509.667 275.352H512.812C513.294 275.352 513.485 275.966 513.104 276.244L510.56 278.086C510.384 278.218 510.311 278.437 510.384 278.642L511.349 281.64C511.496 282.094 510.969 282.474 510.589 282.196L508.044 280.353C507.869 280.222 507.635 280.222 507.459 280.353L504.914 282.196C504.52 282.474 504.008 282.094 504.154 281.64L505.134 278.642C505.207 278.437 505.134 278.218 504.958 278.086L502.414 276.244C502.019 275.966 502.224 275.352 502.706 275.352H505.85C506.07 275.352 506.26 275.22 506.318 275.015L507.284 272.017C507.445 271.564 508.088 271.564 508.234 272.017Z" fill="white"/>
<path d="M522.333 272.017L523.298 275.015C523.371 275.22 523.561 275.352 523.766 275.352H526.91C527.393 275.352 527.598 275.966 527.203 276.244L524.658 278.086C524.483 278.218 524.409 278.437 524.483 278.642L525.462 281.64C525.609 282.094 525.082 282.474 524.702 282.196L522.157 280.353C521.982 280.222 521.748 280.222 521.572 280.353L519.028 282.196C518.633 282.474 518.121 282.094 518.267 281.64L519.232 278.642C519.305 278.437 519.232 278.218 519.057 278.086L516.512 276.244C516.117 275.966 516.322 275.352 516.805 275.352H519.949C520.168 275.352 520.358 275.22 520.417 275.015L521.382 272.017C521.528 271.564 522.186 271.564 522.333 272.017Z" fill="white"/>
<path d="M244.172 232.004C244.231 231.565 244.26 231.127 244.26 230.688V208.795C244.26 202.755 239.273 197.87 233.131 197.87H11.1293C4.98699 197.87 0 202.77 0 208.795V230.688C0 236.728 4.98699 241.613 11.1293 241.613H229.255C242.11 246.366 259.25 237.796 259.25 237.796C248.779 236.962 244.114 235.236 244.172 232.004Z" fill="#D1D3D4"/>
<path d="M247.667 225.613C247.726 225.175 247.755 224.736 247.755 224.297V202.404C247.755 196.364 242.856 191.479 236.831 191.479H18.8362C12.7962 191.479 7.91162 196.379 7.91162 202.404V224.297C7.91162 230.337 12.8109 235.222 18.8362 235.222H233.028C245.649 239.975 258.797 237.825 258.797 237.825C248.501 236.977 247.609 228.845 247.667 225.613Z" fill="#4DC7F4"/>
<path d="M34.5562 226.276C41.8354 225.095 46.7786 218.236 45.5972 210.957C44.4159 203.678 37.5573 198.735 30.2782 199.916C22.999 201.097 18.0558 207.956 19.2372 215.235C20.4185 222.514 27.2771 227.457 34.5562 226.276Z" fill="white"/>
<path d="M32.6132 215.435C29.7029 215.435 27.3484 213.08 27.3484 210.17C27.3484 207.26 29.7029 204.905 32.6132 204.905C35.5235 204.905 37.8781 207.26 37.8781 210.17C37.8781 213.08 35.5235 215.435 32.6132 215.435Z" fill="#4DC7F4"/>
<path d="M27.7869 215.479C28.211 215.142 28.796 215.157 29.2201 215.493C30.1268 216.239 31.2822 216.678 32.5545 216.678C33.783 216.678 34.9091 216.268 35.8012 215.566C36.2253 215.23 36.8249 215.245 37.2344 215.596C38.302 216.502 38.9454 217.819 38.9454 219.53V219.691C38.9454 220.568 38.2288 221.285 37.3514 221.285H27.509C26.6315 221.285 25.9149 220.568 25.9149 219.691V219.53C25.8857 217.746 26.6169 216.4 27.7869 215.479Z" fill="#4DC7F4"/>
<path d="M61.3941 218.652H147.284C148.118 218.652 148.776 218.067 148.776 217.336C148.776 216.605 148.103 216.02 147.284 216.02H61.3941C60.5605 216.02 59.9023 216.605 59.9023 217.336C59.9023 218.052 60.5751 218.652 61.3941 218.652Z" fill="white"/>
<path d="M110.562 226.827H212.188C213.168 226.827 213.958 226.242 213.958 225.511C213.958 224.78 213.168 224.195 212.188 224.195H110.562C109.582 224.195 108.792 224.78 108.792 225.511C108.792 226.242 109.582 226.827 110.562 226.827Z" fill="white"/>
<path d="M154.772 218.652H189.622C189.959 218.652 190.237 218.067 190.237 217.336C190.237 216.605 189.959 216.02 189.622 216.02H154.772C154.436 216.02 154.158 216.605 154.158 217.336C154.172 218.052 154.436 218.652 154.772 218.652Z" fill="white"/>
<path d="M60.9992 226.827H95.8497C96.1861 226.827 96.4639 226.242 96.4639 225.511C96.4639 224.78 96.1861 224.195 95.8497 224.195H60.9992C60.6629 224.195 60.385 224.78 60.385 225.511C60.385 226.242 60.6629 226.827 60.9992 226.827Z" fill="white"/>
<path d="M194.873 218.652H213.636C213.812 218.652 213.958 218.067 213.958 217.336C213.958 216.605 213.812 216.02 213.636 216.02H194.873C194.698 216.02 194.551 216.605 194.551 217.336C194.551 218.052 194.698 218.652 194.873 218.652Z" fill="white"/>
<path d="M121.838 198.412L120.873 201.41C120.8 201.614 120.609 201.746 120.405 201.746H117.26C116.778 201.746 116.573 202.36 116.968 202.638L119.513 204.481C119.688 204.613 119.761 204.832 119.688 205.037L118.723 208.035C118.577 208.488 119.103 208.868 119.483 208.59L122.028 206.748C122.203 206.616 122.438 206.616 122.613 206.748L125.158 208.59C125.553 208.868 126.064 208.488 125.918 208.035L124.953 205.037C124.88 204.832 124.953 204.613 125.128 204.481L127.673 202.638C128.068 202.36 127.863 201.746 127.381 201.746H124.236C124.017 201.746 123.827 201.614 123.768 201.41L122.803 198.412C122.628 197.958 121.984 197.958 121.838 198.412Z" fill="white"/>
<path d="M108.31 198.412L107.345 201.41C107.272 201.614 107.082 201.746 106.877 201.746H103.733C103.25 201.746 103.045 202.36 103.44 202.638L105.985 204.481C106.16 204.613 106.233 204.832 106.16 205.037L105.195 208.035C105.049 208.488 105.575 208.868 105.955 208.59L108.5 206.748C108.676 206.616 108.91 206.616 109.085 206.748L111.63 208.59C112.025 208.868 112.537 208.488 112.39 208.035L111.425 205.037C111.352 204.832 111.425 204.613 111.601 204.481L114.145 202.638C114.54 202.36 114.335 201.746 113.853 201.746H110.708C110.489 201.746 110.299 201.614 110.24 201.41L109.275 198.412C109.114 197.958 108.456 197.958 108.31 198.412Z" fill="white"/>
<path d="M94.797 198.412L93.8318 201.41C93.7587 201.614 93.5686 201.746 93.3638 201.746H90.2195C89.7369 201.746 89.5468 202.36 89.927 202.638L92.4717 204.481C92.6472 204.613 92.7203 204.832 92.6472 205.037L91.682 208.035C91.5357 208.488 92.0622 208.868 92.4425 208.59L94.9871 206.748C95.1626 206.616 95.3966 206.616 95.5721 206.748L98.1168 208.59C98.5117 208.868 99.0235 208.488 98.8773 208.035L97.9121 205.037C97.8389 204.832 97.9121 204.613 98.0876 204.481L100.632 202.638C101.027 202.36 100.822 201.746 100.34 201.746H97.1954C96.9761 201.746 96.7859 201.614 96.7274 201.41L95.7622 198.412C95.5867 197.958 94.9433 197.958 94.797 198.412Z" fill="white"/>
<path d="M81.2834 198.412L80.3182 201.41C80.2451 201.614 80.055 201.746 79.8502 201.746H76.706C76.2233 201.746 76.0186 202.36 76.4134 202.638L78.9581 204.481C79.1336 204.613 79.2067 204.832 79.1336 205.037L78.1684 208.035C78.0222 208.488 78.5486 208.868 78.9289 208.59L81.4736 206.748C81.6491 206.616 81.883 206.616 82.0585 206.748L84.6032 208.59C84.9981 208.868 85.51 208.488 85.3637 208.035L84.3985 205.037C84.3254 204.832 84.3985 204.613 84.574 204.481L87.1187 202.638C87.5135 202.36 87.3088 201.746 86.8262 201.746H83.6819C83.4625 201.746 83.2724 201.614 83.2139 201.41L82.2487 198.412C82.0732 197.958 81.4297 197.958 81.2834 198.412Z" fill="white"/>
<path d="M67.1855 198.412L66.2203 201.41C66.1472 201.614 65.9571 201.746 65.7523 201.746H62.608C62.1254 201.746 61.9207 202.36 62.3156 202.638L64.8602 204.481C65.0357 204.613 65.1089 204.832 65.0357 205.037L64.0705 208.035C63.9243 208.488 64.4507 208.868 64.831 208.59L67.3757 206.748C67.5512 206.616 67.7852 206.616 67.9607 206.748L70.5053 208.59C70.9002 208.868 71.4121 208.488 71.2658 208.035L70.286 205.037C70.2128 204.832 70.286 204.613 70.4615 204.481L73.0061 202.638C73.401 202.36 73.1963 201.746 72.7136 201.746H69.5694C69.35 201.746 69.1599 201.614 69.1014 201.41L68.1362 198.412C67.9753 197.958 67.3318 197.958 67.1855 198.412Z" fill="white"/>
<path d="M124.134 146.158V160.548H119.103C116.734 160.548 114.803 158.618 114.803 156.249V150.457C114.803 148.088 116.734 146.158 119.103 146.158H124.134Z" fill="#B5D3FB"/>
<path d="M142.356 160.226C140.63 162.186 126.035 160.548 126.035 160.548V146.158C126.035 146.158 128.711 143.554 129.428 141.171C130.13 138.801 130.773 135.379 132.601 135.862C134.444 136.345 135.248 142.984 132.982 146.158C132.982 146.158 140.118 144.227 142.049 146.333C143.877 148.322 143.965 158.398 142.356 160.226Z" fill="#B5D3FB"/>
<path d="M475.972 16.3643V34.3818H469.669C466.7 34.3818 464.287 31.9687 464.287 28.9999V21.7461C464.287 18.7773 466.7 16.3643 469.669 16.3643H475.972Z" fill="#B5D3FB"/>
<path d="M498.787 33.987C496.622 36.4293 478.356 34.3965 478.356 34.3965V16.379C478.356 16.379 481.705 13.1323 482.612 10.1343C483.489 7.16547 484.294 2.88046 486.575 3.48007C488.871 4.0943 489.88 12.3865 487.058 16.3643C487.058 16.3643 495.994 13.9513 498.407 16.5837C500.688 19.0845 500.805 31.6909 498.787 33.987Z" fill="#B5D3FB"/>
<path d="M123.037 24.598C115.461 24.598 109.319 30.7404 109.319 38.3159C109.319 40.9483 110.065 43.4053 111.352 45.4966C109.597 46.7982 108.91 49.7085 108.295 52.7504C110.913 51.3903 113.765 50.6006 116.953 50.6152C118.781 51.5219 120.858 52.0338 123.037 52.0338C130.613 52.0338 136.755 45.8914 136.755 38.3159C136.755 30.7404 130.613 24.598 123.037 24.598Z" fill="#B5D3FB"/>
<path d="M150.985 43.6538C148.074 41.7819 145.164 40.5095 142.327 41.5186C140.938 42.206 139.431 42.6594 137.823 42.8495C138.261 41.4163 138.495 39.8953 138.495 38.3159C138.495 30.1407 132.119 23.4134 124.061 22.8869C126.357 18.4995 130.934 15.5015 136.228 15.5015C143.804 15.5015 149.946 21.6438 149.946 29.2193C149.946 31.8518 149.2 34.3087 147.914 36.4C149.99 37.6285 150.721 40.3779 150.985 43.6538Z" fill="#B5D3FB"/>
<path d="M117.436 39.6468C118.276 39.6468 118.957 38.9658 118.957 38.1258C118.957 37.2858 118.276 36.6049 117.436 36.6049C116.596 36.6049 115.915 37.2858 115.915 38.1258C115.915 38.9658 116.596 39.6468 117.436 39.6468Z" fill="white"/>
<path d="M122.525 39.6468C123.365 39.6468 124.046 38.9658 124.046 38.1258C124.046 37.2858 123.365 36.6049 122.525 36.6049C121.685 36.6049 121.004 37.2858 121.004 38.1258C121.004 38.9658 121.685 39.6468 122.525 39.6468Z" fill="white"/>
<path d="M126.094 38.1258C126.094 37.2776 126.781 36.6049 127.614 36.6049C128.448 36.6049 129.135 37.2922 129.135 38.1258C129.135 38.9594 128.448 39.6468 127.614 39.6468C126.781 39.6468 126.094 38.974 126.094 38.1258Z" fill="white"/>
<path d="M547.282 356.138C539.736 356.138 533.608 362.266 533.608 369.812C533.608 372.43 534.354 374.887 535.626 376.963C533.886 378.25 533.198 381.161 532.584 384.188C535.187 382.828 538.025 382.053 541.213 382.067C543.041 382.974 545.103 383.486 547.267 383.486C554.814 383.486 560.941 377.358 560.941 369.812C560.941 362.266 554.828 356.138 547.282 356.138Z" fill="#B5D3FB"/>
<path d="M575.127 375.121C572.217 373.249 569.336 371.991 566.499 373C565.124 373.687 563.603 374.141 562.009 374.331C562.448 372.898 562.682 371.391 562.682 369.812C562.682 361.666 556.32 354.968 548.306 354.427C550.587 350.054 555.165 347.071 560.429 347.071C567.976 347.071 574.103 353.184 574.103 360.745C574.103 363.362 573.358 365.819 572.085 367.896C574.147 369.124 574.864 371.859 575.127 375.121Z" fill="#B5D3FB"/>
<path d="M540.174 369.607C540.174 368.774 540.861 368.086 541.695 368.086C542.529 368.086 543.216 368.774 543.216 369.607C543.216 370.441 542.529 371.128 541.695 371.128C540.861 371.128 540.174 370.455 540.174 369.607Z" fill="white"/>
<path d="M545.249 369.607C545.249 368.774 545.936 368.086 546.77 368.086C547.603 368.086 548.291 368.774 548.291 369.607C548.291 370.441 547.603 371.128 546.77 371.128C545.936 371.128 545.249 370.455 545.249 369.607Z" fill="white"/>
<path d="M550.323 369.607C550.323 368.774 551.011 368.086 551.844 368.086C552.678 368.086 553.365 368.774 553.365 369.607C553.365 370.441 552.678 371.128 551.844 371.128C551.011 371.128 550.323 370.455 550.323 369.607Z" fill="white"/>
<path d="M76.9985 300.345C76.9985 300.213 76.9985 300.067 76.9839 299.936C76.9692 299.687 76.9546 299.453 76.94 299.204C76.94 299.146 76.94 299.087 76.9254 299.029C76.8815 298.561 76.823 298.107 76.7499 297.639C76.589 296.63 76.3258 295.636 76.004 294.7C75.9163 294.422 75.7993 294.144 75.6969 293.881C75.653 293.779 75.6092 293.676 75.5653 293.559C75.4044 293.194 75.2435 292.843 75.0681 292.492L74.9072 292.17C74.3076 291.058 73.591 290.005 72.772 289.055C72.6843 288.952 72.5819 288.835 72.4941 288.733C72.2455 288.455 71.9823 288.177 71.719 287.914C71.5289 287.724 71.3242 287.534 71.1194 287.344C67.9459 284.492 63.7486 282.752 59.1565 282.752C54.5644 282.752 50.3671 284.492 47.1936 287.344C46.9888 287.534 46.7841 287.709 46.5939 287.914C46.3307 288.177 46.0675 288.455 45.8188 288.733C45.7311 288.835 45.6287 288.952 45.541 289.055C44.722 290.02 44.0054 291.058 43.4058 292.17L43.2449 292.492C43.0694 292.843 42.8939 293.194 42.7477 293.559C42.7038 293.662 42.6599 293.764 42.616 293.881C42.499 294.159 42.3967 294.422 42.3089 294.7C41.9726 295.651 41.7239 296.63 41.5631 297.639C41.4899 298.093 41.4315 298.561 41.3876 299.029C41.3876 299.087 41.373 299.146 41.373 299.204C41.3583 299.438 41.3437 299.687 41.3291 299.936C41.3291 300.067 41.3145 300.213 41.3145 300.345C41.3145 300.418 41.3145 300.477 41.3145 300.55C41.3145 300.813 41.3145 301.062 41.3291 301.325C41.3437 301.822 41.3876 302.319 41.4607 302.802C41.5192 303.27 41.5923 303.723 41.6947 304.191C41.7386 304.425 41.7971 304.645 41.8556 304.864C41.9433 305.244 42.0603 305.624 42.1773 306.005C42.3674 306.59 42.5868 307.145 42.8354 307.701C42.8647 307.789 42.9086 307.862 42.9524 307.95C43.1279 308.345 43.318 308.71 43.5228 309.076C43.5667 309.164 43.6105 309.237 43.669 309.325C43.903 309.719 44.137 310.114 44.4002 310.494C44.6635 310.889 44.9414 311.27 45.2339 311.635C45.6433 312.147 46.0675 312.63 46.5354 313.083C47.0181 313.58 47.5445 314.034 48.0857 314.472C51.1276 316.885 54.9739 318.319 59.1565 318.333C59.1711 318.333 59.1711 318.333 59.1857 318.333C59.2004 318.333 59.215 318.333 59.215 318.333C63.3976 318.319 67.2293 316.885 70.2712 314.472C70.8123 314.048 71.3388 313.58 71.8214 313.083C72.2894 312.63 72.7135 312.132 73.123 311.635C73.4155 311.27 73.6933 310.889 73.9566 310.494C74.2198 310.114 74.4685 309.719 74.6878 309.325C74.7317 309.251 74.7902 309.164 74.8341 309.076C75.0388 308.71 75.2289 308.33 75.4044 307.95C75.4337 307.862 75.4775 307.789 75.5214 307.701C75.77 307.145 75.9894 306.575 76.1795 306.005C76.2965 305.624 76.4135 305.244 76.5013 304.864C76.5598 304.645 76.6036 304.411 76.6621 304.191C76.7499 303.738 76.8376 303.27 76.8961 302.802C76.9546 302.319 76.9985 301.822 77.0277 301.325C77.0424 301.076 77.0424 300.813 77.0424 300.55C76.9985 300.477 76.9985 300.403 76.9985 300.345ZM75.0534 297.639C75.1412 298.093 75.1997 298.561 75.2436 299.029C75.2436 299.087 75.2582 299.146 75.2582 299.204H70.4028C70.3297 297.654 70.1249 296.133 69.8032 294.7H74.2198C74.5854 295.651 74.8633 296.63 75.0534 297.639ZM68.8233 300.623C68.8233 302.085 68.7064 303.504 68.4724 304.849H65.1233C65.2403 303.475 65.2988 302.041 65.2988 300.594C65.2988 300.506 65.2988 300.433 65.2988 300.345H68.8233C68.8233 300.433 68.8233 300.535 68.8233 300.623ZM49.4604 300.623C49.4604 300.535 49.4604 300.433 49.4604 300.345H52.9849C52.9849 300.433 52.9849 300.506 52.9849 300.594C52.9849 302.056 53.0434 303.475 53.1604 304.849H49.8113C49.5774 303.504 49.4604 302.085 49.4604 300.623ZM63.9095 300.579C63.9095 302.056 63.8364 303.475 63.7194 304.835H59.8438V300.33H63.9095C63.9095 300.418 63.9095 300.506 63.9095 300.579ZM54.3742 300.579C54.3742 300.491 54.3742 300.418 54.3742 300.33H58.4399V304.835H54.5643C54.4473 303.489 54.3742 302.056 54.3742 300.579ZM59.8292 285.399C60.5458 285.75 61.2185 286.642 61.7889 287.914H59.8292V285.399ZM58.4545 285.399V287.914H56.4948C57.0652 286.642 57.7379 285.75 58.4545 285.399ZM58.4545 289.055V293.559H54.93C55.2078 291.848 55.5881 290.327 56.0414 289.055H58.4545ZM58.4545 294.7V299.204H54.4035C54.4474 297.625 54.579 296.118 54.7545 294.7H58.4545ZM58.4545 305.99V310.494H55.5442C55.1932 309.164 54.9007 307.643 54.7106 305.99H58.4545ZM58.4545 311.635V315.774C57.4746 315.291 56.5826 313.785 55.8806 311.635H58.4545ZM59.8292 315.774V311.635H62.4031C61.7158 313.785 60.8237 315.291 59.8292 315.774ZM59.8292 310.494V305.99H63.5877C63.383 307.643 63.1051 309.164 62.7541 310.494H59.8292ZM59.8292 299.204V294.7H63.5292C63.7194 296.118 63.8364 297.625 63.8802 299.204H59.8292ZM59.8292 293.559V289.055H62.2423C62.6956 290.327 63.0759 291.848 63.3537 293.559H59.8292ZM63.8217 289.055H65.8253C66.6443 290.342 67.317 291.863 67.8289 293.559H64.8016C64.5676 291.936 64.2312 290.415 63.8217 289.055ZM63.4415 287.914C63.1051 286.993 62.7395 286.188 62.3446 285.516C63.3099 286.086 64.2166 286.89 65.021 287.914H63.4415ZM55.9244 285.53C55.5296 286.203 55.164 287.007 54.8276 287.929H53.2481C54.0671 286.905 54.9592 286.086 55.9244 285.53ZM54.462 289.055C54.0525 290.415 53.7308 291.936 53.4821 293.559H50.4548C50.9667 291.863 51.6394 290.342 52.4584 289.055H54.462ZM53.3213 294.7C53.1458 296.133 53.0434 297.654 52.9995 299.204H49.5042C49.592 297.625 49.8114 296.118 50.1477 294.7H53.3213ZM53.2774 305.99C53.4529 307.584 53.7015 309.105 54.0379 310.494H51.5371C50.8936 309.149 50.3817 307.628 50.0307 305.99H53.2774ZM54.3157 311.635C54.4181 312.015 54.5351 312.396 54.6521 312.761C55.047 313.96 55.5003 314.97 55.9976 315.774C54.5059 314.926 53.175 313.493 52.1074 311.635H54.3157ZM62.2862 315.774C62.7834 314.955 63.2221 313.96 63.6316 312.761C63.7486 312.396 63.8656 312.03 63.968 311.635H66.1763C65.1087 313.493 63.7779 314.926 62.2862 315.774ZM64.2605 310.494C64.5822 309.105 64.8455 307.584 65.021 305.99H68.2676C67.9166 307.628 67.4048 309.149 66.7613 310.494H64.2605ZM65.2842 299.204C65.2403 297.654 65.1379 296.133 64.9624 294.7H68.136C68.4724 296.118 68.7063 297.625 68.7795 299.204H65.2842ZM72.9475 292.184C73.006 292.287 73.0791 292.389 73.1376 292.506C73.3424 292.857 73.5325 293.208 73.708 293.574H69.5107C69.0573 291.95 68.4577 290.43 67.7119 289.069H70.4613C71.4119 289.991 72.2601 291.044 72.9475 292.184ZM69.1597 287.914H67.0245C66.4395 287.022 65.8107 286.247 65.138 285.589C66.2933 286.057 67.3901 286.642 68.3992 287.344C68.6625 287.534 68.9111 287.724 69.1597 287.914ZM49.8845 287.358C50.8936 286.656 51.9904 286.071 53.1458 285.603C52.473 286.262 51.8442 287.037 51.2592 287.929H49.124C49.3726 287.724 49.6212 287.534 49.8845 287.358ZM45.1461 292.492C45.2046 292.389 45.2777 292.287 45.3362 292.17C46.0382 291.029 46.8718 289.976 47.837 289.055H50.5865C49.8406 290.415 49.2264 291.936 48.7876 293.559H44.5904C44.7512 293.208 44.9414 292.843 45.1461 292.492ZM43.0402 299.029C43.084 298.561 43.1425 298.107 43.2303 297.639C43.4204 296.616 43.6983 295.636 44.0639 294.7H48.4805C48.1588 296.148 47.954 297.654 47.8809 299.204H43.0255C43.0255 299.146 43.0402 299.087 43.0402 299.029ZM43.3911 304.177C43.2888 303.723 43.201 303.255 43.1279 302.787C43.0548 302.305 43.0109 301.807 42.9817 301.31C42.967 301.047 42.967 300.798 42.967 300.535C42.967 300.462 42.967 300.403 42.967 300.33H47.837C47.837 300.418 47.837 300.52 47.837 300.608C47.837 302.056 47.9394 303.46 48.1588 304.835H43.552C43.4935 304.63 43.4496 304.396 43.3911 304.177ZM45.5995 309.31C45.541 309.237 45.4971 309.149 45.4386 309.061C45.2046 308.696 44.9852 308.315 44.7805 307.935C44.7366 307.847 44.6927 307.774 44.6489 307.687C44.371 307.131 44.1224 306.56 43.9176 305.99H48.3635C48.6853 307.584 49.1533 309.105 49.7382 310.494H46.4331C46.1406 310.114 45.8627 309.719 45.5995 309.31ZM49.0216 313.083C48.4659 312.63 47.9394 312.147 47.4422 311.635H50.2793C50.5133 312.103 50.7766 312.571 51.0544 313.01C51.6102 313.902 52.2244 314.692 52.8825 315.379C52.2537 315.116 51.6394 314.809 51.0544 314.472C50.3232 314.048 49.6505 313.595 49.0216 313.083ZM69.2621 313.083C68.6332 313.595 67.9459 314.048 67.2439 314.472C66.6589 314.809 66.0447 315.116 65.4158 315.379C66.0739 314.692 66.6735 313.902 67.2439 313.01C67.5218 312.571 67.7704 312.118 68.019 311.635H70.8562C70.3589 312.147 69.8324 312.63 69.2621 313.083ZM73.6348 307.687C73.591 307.774 73.5471 307.847 73.5032 307.935C73.2985 308.33 73.0791 308.696 72.8451 309.061C72.7866 309.149 72.7428 309.222 72.6843 309.31C72.421 309.719 72.1431 310.1 71.836 310.48H68.5309C69.1305 309.09 69.5838 307.57 69.9056 305.975H74.3515C74.1467 306.575 73.8981 307.131 73.6348 307.687ZM70.125 304.849C70.3297 303.489 70.4467 302.071 70.4467 300.623C70.4467 300.535 70.4467 300.433 70.4467 300.345H75.3167C75.3167 300.418 75.3167 300.477 75.3167 300.55C75.3167 300.813 75.3167 301.062 75.3021 301.325C75.2728 301.822 75.2289 302.319 75.1558 302.802C75.0973 303.27 75.0096 303.738 74.8926 304.191C74.8341 304.425 74.7756 304.645 74.7171 304.864H70.125V304.849Z" fill="#B5D3FB"/>
<path d="M571.252 186.741C571.252 186.609 571.252 186.463 571.237 186.331C571.223 186.083 571.208 185.849 571.193 185.6C571.193 185.542 571.193 185.483 571.179 185.425C571.135 184.957 571.076 184.503 571.003 184.035C570.842 183.026 570.579 182.032 570.257 181.096C570.17 180.818 570.053 180.54 569.95 180.277C569.906 180.175 569.863 180.072 569.819 179.955C569.658 179.59 569.497 179.239 569.321 178.888L569.161 178.566C568.561 177.454 567.844 176.401 567.025 175.451C566.938 175.348 566.835 175.231 566.748 175.129C566.499 174.851 566.236 174.573 565.972 174.31C565.782 174.12 565.578 173.93 565.373 173.74C562.199 170.888 558.002 169.148 553.41 169.148C548.818 169.148 544.621 170.888 541.447 173.74C541.242 173.93 541.037 174.105 540.847 174.31C540.584 174.573 540.321 174.851 540.072 175.129C539.985 175.231 539.882 175.348 539.794 175.451C538.975 176.416 538.259 177.454 537.659 178.566L537.498 178.888C537.323 179.239 537.147 179.59 537.001 179.955C536.957 180.058 536.913 180.16 536.869 180.277C536.752 180.555 536.65 180.818 536.562 181.096C536.226 182.046 535.977 183.026 535.817 184.035C535.743 184.489 535.685 184.957 535.641 185.425C535.641 185.483 535.626 185.542 535.626 185.6C535.612 185.834 535.597 186.083 535.583 186.331C535.583 186.463 535.568 186.609 535.568 186.741C535.568 186.814 535.568 186.873 535.568 186.946C535.568 187.209 535.568 187.458 535.583 187.721C535.597 188.218 535.641 188.715 535.714 189.198C535.773 189.666 535.846 190.119 535.948 190.587C535.992 190.821 536.051 191.041 536.109 191.26C536.197 191.64 536.314 192.02 536.431 192.401C536.621 192.986 536.84 193.541 537.089 194.097C537.118 194.185 537.162 194.258 537.206 194.346C537.381 194.741 537.571 195.106 537.776 195.472C537.82 195.56 537.864 195.633 537.922 195.72C538.156 196.115 538.39 196.51 538.654 196.89C538.917 197.285 539.195 197.666 539.487 198.031C539.897 198.543 540.321 199.026 540.789 199.479C541.271 199.976 541.798 200.43 542.339 200.868C545.381 203.281 549.227 204.715 553.41 204.729C553.425 204.729 553.425 204.729 553.439 204.729C553.454 204.729 553.468 204.729 553.468 204.729C557.651 204.715 561.483 203.281 564.525 200.868C565.066 200.444 565.592 199.976 566.075 199.479C566.543 199.026 566.967 198.528 567.376 198.031C567.669 197.666 567.947 197.285 568.21 196.89C568.473 196.51 568.722 196.115 568.941 195.72C568.985 195.647 569.044 195.56 569.087 195.472C569.292 195.106 569.482 194.726 569.658 194.346C569.687 194.258 569.731 194.185 569.775 194.097C570.023 193.541 570.243 192.971 570.433 192.401C570.55 192.02 570.667 191.64 570.755 191.26C570.813 191.041 570.857 190.807 570.916 190.587C571.003 190.134 571.091 189.666 571.15 189.198C571.208 188.715 571.252 188.218 571.281 187.721C571.296 187.472 571.296 187.209 571.296 186.946C571.252 186.873 571.252 186.799 571.252 186.741ZM569.292 184.035C569.38 184.489 569.438 184.957 569.482 185.425C569.482 185.483 569.497 185.542 569.497 185.6H564.642C564.568 184.05 564.364 182.529 564.042 181.096H568.459C568.824 182.032 569.102 183.026 569.292 184.035ZM563.077 187.019C563.077 188.481 562.96 189.9 562.726 191.245H559.377C559.494 189.871 559.552 188.437 559.552 186.99C559.552 186.902 559.552 186.829 559.552 186.741H563.077C563.062 186.829 563.077 186.916 563.077 187.019ZM543.699 187.019C543.699 186.931 543.699 186.829 543.699 186.741H547.224C547.224 186.829 547.224 186.902 547.224 186.99C547.224 188.452 547.282 189.871 547.399 191.245H544.05C543.831 189.9 543.699 188.481 543.699 187.019ZM558.148 186.975C558.148 188.452 558.075 189.871 557.958 191.231H554.083V186.726H558.148C558.148 186.814 558.148 186.902 558.148 186.975ZM548.628 186.975C548.628 186.887 548.628 186.814 548.628 186.726H552.693V191.231H548.818C548.686 189.885 548.628 188.452 548.628 186.975ZM554.083 171.795C554.799 172.146 555.457 173.038 556.042 174.31H554.083V171.795ZM552.693 171.795V174.31H550.734C551.319 173.023 551.977 172.146 552.693 171.795ZM552.693 175.451V179.955H549.169C549.447 178.244 549.827 176.723 550.28 175.451H552.693ZM552.693 181.096V185.6H548.642C548.686 184.021 548.818 182.514 548.993 181.096H552.693ZM552.693 192.371V196.876H549.783C549.432 195.545 549.14 194.024 548.949 192.371H552.693ZM552.693 198.017V202.155C551.713 201.673 550.807 200.166 550.119 198.017H552.693ZM554.083 202.17V198.031H556.657C555.955 200.181 555.062 201.673 554.083 202.17ZM554.083 196.876V192.371H557.841C557.636 194.024 557.359 195.545 557.008 196.876H554.083ZM554.083 185.6V181.096H557.783C557.973 182.514 558.09 184.021 558.134 185.6H554.083ZM554.083 179.955V175.451H556.496C556.949 176.723 557.329 178.244 557.607 179.955H554.083ZM558.075 175.451H560.079C560.898 176.738 561.57 178.259 562.082 179.955H559.055C558.806 178.332 558.485 176.811 558.075 175.451ZM557.695 174.31C557.359 173.389 556.993 172.584 556.598 171.912C557.563 172.482 558.47 173.286 559.274 174.31H557.695ZM550.178 171.912C549.783 172.584 549.417 173.389 549.081 174.31H547.502C548.306 173.301 549.198 172.482 550.178 171.912ZM548.701 175.451C548.291 176.811 547.97 178.332 547.721 179.955H544.694C545.206 178.259 545.878 176.738 546.697 175.451H548.701ZM547.575 181.096C547.399 182.529 547.297 184.05 547.253 185.6H543.758C543.845 184.021 544.065 182.514 544.401 181.096H547.575ZM547.516 192.371C547.692 193.966 547.955 195.486 548.277 196.876H545.776C545.132 195.53 544.621 194.009 544.27 192.371H547.516ZM548.569 198.017C548.672 198.397 548.789 198.777 548.906 199.143C549.3 200.342 549.754 201.351 550.251 202.155C548.759 201.307 547.428 199.874 546.361 198.017H548.569ZM556.525 202.155C557.022 201.336 557.461 200.342 557.87 199.143C557.987 198.777 558.104 198.411 558.207 198.017H560.415C559.348 199.874 558.017 201.307 556.525 202.155ZM558.499 196.876C558.821 195.486 559.084 193.966 559.26 192.371H562.506C562.155 194.009 561.644 195.53 561 196.876H558.499ZM559.523 185.6C559.479 184.05 559.377 182.529 559.201 181.096H562.375C562.711 182.514 562.945 184.021 563.018 185.6H559.523ZM567.201 178.566C567.259 178.668 567.333 178.771 567.391 178.888C567.596 179.239 567.786 179.59 567.961 179.955H563.764C563.311 178.332 562.711 176.811 561.965 175.451H564.715C565.665 176.387 566.499 177.425 567.201 178.566ZM563.413 174.31H561.278C560.693 173.418 560.064 172.643 559.391 171.985C560.547 172.453 561.644 173.038 562.653 173.74C562.901 173.93 563.165 174.105 563.413 174.31ZM544.138 173.74C545.147 173.038 546.244 172.453 547.399 171.985C546.726 172.643 546.098 173.418 545.513 174.31H543.377C543.611 174.105 543.875 173.93 544.138 173.74ZM539.385 178.888C539.443 178.785 539.517 178.683 539.575 178.566C540.277 177.425 541.111 176.372 542.076 175.451H544.825C544.079 176.811 543.465 178.332 543.026 179.955H538.829C538.99 179.59 539.18 179.239 539.385 178.888ZM537.294 185.425C537.337 184.957 537.396 184.503 537.484 184.035C537.674 183.012 537.952 182.032 538.317 181.096H542.734C542.412 182.544 542.207 184.05 542.134 185.6H537.279C537.279 185.542 537.279 185.483 537.294 185.425ZM537.63 190.558C537.528 190.105 537.44 189.637 537.367 189.169C537.294 188.686 537.25 188.189 537.22 187.692C537.206 187.428 537.206 187.18 537.206 186.916C537.206 186.843 537.206 186.785 537.206 186.712H542.076C542.076 186.799 542.076 186.902 542.076 186.99C542.076 188.437 542.178 189.841 542.398 191.216H537.791C537.747 191.011 537.688 190.792 537.63 190.558ZM539.838 195.706C539.78 195.633 539.736 195.545 539.677 195.457C539.443 195.092 539.224 194.711 539.019 194.331C538.975 194.243 538.932 194.17 538.888 194.083C538.61 193.527 538.361 192.956 538.156 192.386H542.602C542.924 193.98 543.392 195.501 543.977 196.89H540.672C540.394 196.496 540.102 196.115 539.838 195.706ZM543.26 199.479C542.705 199.026 542.178 198.543 541.681 198.031H544.518C544.752 198.499 545.015 198.967 545.293 199.406C545.849 200.298 546.463 201.088 547.121 201.775C546.492 201.512 545.878 201.205 545.293 200.868C544.577 200.444 543.904 199.976 543.26 199.479ZM563.516 199.479C562.887 199.991 562.199 200.459 561.497 200.868C560.912 201.205 560.298 201.512 559.669 201.775C560.327 201.088 560.927 200.298 561.497 199.406C561.775 198.967 562.024 198.514 562.272 198.031H565.11C564.598 198.543 564.071 199.026 563.516 199.479ZM567.874 194.083C567.83 194.17 567.786 194.243 567.742 194.331C567.537 194.726 567.318 195.092 567.084 195.457C567.025 195.545 566.982 195.618 566.923 195.706C566.66 196.115 566.382 196.496 566.075 196.876H562.77C563.369 195.486 563.823 193.966 564.144 192.371H568.59C568.4 192.956 568.152 193.527 567.874 194.083ZM564.364 191.245C564.568 189.885 564.685 188.467 564.685 187.019C564.685 186.931 564.685 186.829 564.685 186.741H569.555C569.555 186.814 569.555 186.873 569.555 186.946C569.555 187.209 569.555 187.458 569.541 187.721C569.512 188.218 569.468 188.715 569.395 189.198C569.336 189.666 569.248 190.134 569.131 190.587C569.073 190.821 569.014 191.041 568.956 191.26H564.364V191.245Z" fill="#B5D3FB"/>
<path d="M131.051 85.2316C131.402 84.8952 131.212 84.3249 130.744 84.2517L128.155 83.8569C127.965 83.8276 127.804 83.7106 127.731 83.5351L126.591 81.166C126.386 80.7418 125.772 80.7272 125.552 81.1513L124.368 83.4913C124.28 83.6668 124.119 83.7838 123.929 83.7984L121.326 84.1494C120.858 84.2079 120.653 84.7928 121.004 85.1292L122.861 86.9719C122.993 87.1035 123.051 87.2937 123.022 87.4838L122.554 90.0723C122.466 90.5403 122.964 90.9059 123.388 90.6866L125.713 89.4874C125.889 89.3996 126.079 89.3996 126.254 89.4874L128.565 90.7304C128.989 90.9498 129.486 90.5988 129.413 90.1308L128.989 87.5423C128.96 87.3522 129.018 87.162 129.165 87.0304L131.051 85.2316Z" fill="#FFC880"/>
<path d="M59.1271 138.48C59.478 138.144 59.2879 137.573 58.8199 137.5L56.2314 137.105C56.0413 137.076 55.8804 136.959 55.8073 136.783L54.6665 134.414C54.4618 133.99 53.8476 133.975 53.6282 134.4L52.4436 136.74C52.3558 136.915 52.195 137.032 52.0049 137.047L49.4017 137.398C48.9337 137.456 48.7289 138.041 49.0799 138.378L50.9373 140.22C51.0689 140.352 51.1274 140.542 51.0981 140.732L50.6302 143.321C50.5424 143.789 51.0396 144.154 51.4637 143.935L53.7891 142.736C53.9646 142.648 54.1547 142.648 54.3302 142.736L56.6409 143.979C57.065 144.198 57.5622 143.847 57.4891 143.379L57.065 140.791C57.0357 140.6 57.0942 140.41 57.2405 140.279L59.1271 138.48Z" fill="#FFC880"/>
<path d="M101.48 258.928C101.831 258.592 101.641 258.021 101.173 257.948L98.5846 257.553C98.3945 257.524 98.2337 257.407 98.1605 257.232L97.0198 254.862C96.8151 254.438 96.2008 254.424 95.9815 254.848L94.7969 257.188C94.7091 257.363 94.5482 257.48 94.3581 257.495L91.7549 257.846C91.287 257.904 91.0822 258.489 91.4332 258.826L93.2905 260.668C93.4222 260.8 93.4807 260.99 93.4514 261.18L92.9834 263.769C92.8957 264.237 93.3929 264.602 93.817 264.383L96.1423 263.184C96.3178 263.096 96.5079 263.096 96.6834 263.184L98.9941 264.427C99.4182 264.646 99.9155 264.295 99.8424 263.827L99.4182 261.239C99.389 261.049 99.4475 260.858 99.5937 260.727L101.48 258.928Z" fill="#FFC880"/>
<path d="M555.837 30.0091C556.188 29.6727 555.998 29.1023 555.53 29.0292L552.942 28.6343C552.752 28.6051 552.591 28.4881 552.503 28.3126L551.362 25.9434C551.158 25.5193 550.543 25.5047 550.324 25.9288L549.139 28.2687C549.052 28.4442 548.891 28.5612 548.701 28.5758L546.097 28.9268C545.629 28.9853 545.425 29.5703 545.776 29.9067L547.633 31.7494C547.765 31.881 547.823 32.0711 547.794 32.2612L547.326 34.8498C547.238 35.3178 547.735 35.6834 548.16 35.464L550.485 34.2648C550.66 34.1771 550.85 34.1771 551.026 34.2648L553.337 35.5079C553.761 35.7273 554.258 35.3763 554.185 34.9083L553.761 32.3197C553.732 32.1296 553.79 31.9395 553.936 31.8079L555.837 30.0091Z" fill="#FFC880"/>
<path d="M518.194 330.764C518.545 330.428 518.355 329.857 517.887 329.784L515.298 329.389C515.108 329.36 514.947 329.243 514.874 329.068L513.733 326.699C513.529 326.274 512.914 326.26 512.695 326.684L511.511 329.024C511.423 329.199 511.262 329.316 511.072 329.331L508.469 329.682C508.001 329.74 507.796 330.325 508.147 330.662L510.004 332.504C510.136 332.636 510.194 332.826 510.165 333.016L509.697 335.605C509.609 336.073 510.107 336.439 510.531 336.219L512.856 335.02C513.031 334.932 513.222 334.932 513.397 335.02L515.708 336.263C516.132 336.482 516.629 336.131 516.556 335.663L516.132 333.075C516.103 332.885 516.161 332.695 516.307 332.563L518.194 330.764Z" fill="#FFC880"/>
<path d="M532.64 159.98H670.69C677.85 150.29 689.36 144 702.34 144C724.06 144 741.67 161.61 741.67 183.33C741.67 205.05 724.06 222.66 702.34 222.66C692.1 222.66 682.78 218.75 675.78 212.34H578.27L552.82 233.05L552.36 212.34H532.64C527.87 212.34 524 208.47 524 203.7V168.61C524 163.85 527.87 159.98 532.64 159.98Z" fill="#EB5C0A"/>
<path d="M598.1 183.79H665.76C668.07 183.79 669.94 181.92 669.94 179.61V171.66C669.94 169.35 668.07 167.48 665.76 167.48H598.1C595.79 167.48 593.92 169.35 593.92 171.66V179.61C593.92 181.92 595.79 183.79 598.1 183.79Z" fill="white"/>
<path d="M659.93 169.74L658.92 172.84C658.85 173.05 658.65 173.19 658.43 173.19H655.17C654.67 173.19 654.47 173.83 654.87 174.12L657.51 176.04C657.69 176.17 657.77 176.4 657.7 176.61L656.69 179.71C656.54 180.18 657.08 180.58 657.48 180.28L660.12 178.36C660.3 178.23 660.54 178.23 660.72 178.36L663.36 180.28C663.76 180.57 664.3 180.18 664.15 179.71L663.14 176.61C663.07 176.4 663.15 176.17 663.33 176.04L665.97 174.12C666.37 173.83 666.17 173.19 665.67 173.19H662.41C662.19 173.19 661.99 173.05 661.92 172.84L660.91 169.74C660.75 169.27 660.08 169.27 659.93 169.74Z" fill="#FFBD66"/>
<path d="M645.93 169.74L644.92 172.84C644.85 173.05 644.65 173.19 644.43 173.19H641.17C640.67 173.19 640.47 173.83 640.87 174.12L643.51 176.04C643.69 176.17 643.77 176.4 643.7 176.61L642.69 179.71C642.54 180.18 643.08 180.58 643.48 180.28L646.12 178.36C646.3 178.23 646.54 178.23 646.72 178.36L649.36 180.28C649.76 180.57 650.3 180.18 650.15 179.71L649.14 176.61C649.07 176.4 649.15 176.17 649.33 176.04L651.97 174.12C652.37 173.83 652.17 173.19 651.67 173.19H648.41C648.19 173.19 647.99 173.05 647.92 172.84L646.91 169.74C646.75 169.27 646.08 169.27 645.93 169.74Z" fill="#FFBD66"/>
<path d="M631.92 169.74L630.91 172.84C630.84 173.05 630.64 173.19 630.42 173.19H627.16C626.66 173.19 626.46 173.83 626.86 174.12L629.5 176.04C629.68 176.17 629.76 176.4 629.69 176.61L628.68 179.71C628.53 180.18 629.07 180.58 629.47 180.28L632.11 178.36C632.29 178.23 632.53 178.23 632.71 178.36L635.35 180.28C635.75 180.57 636.29 180.18 636.14 179.71L635.13 176.61C635.06 176.4 635.14 176.17 635.32 176.04L637.96 174.12C638.36 173.83 638.16 173.19 637.66 173.19H634.4C634.18 173.19 633.98 173.05 633.91 172.84L632.9 169.74C632.75 169.27 632.08 169.27 631.92 169.74Z" fill="#FFBD66"/>
<path d="M617.92 169.74L616.91 172.84C616.84 173.05 616.64 173.19 616.42 173.19H613.16C612.66 173.19 612.46 173.83 612.86 174.12L615.5 176.04C615.68 176.17 615.76 176.4 615.69 176.61L614.68 179.71C614.53 180.18 615.07 180.58 615.47 180.28L618.11 178.36C618.29 178.23 618.53 178.23 618.71 178.36L621.35 180.28C621.75 180.57 622.29 180.18 622.14 179.71L621.13 176.61C621.06 176.4 621.14 176.17 621.32 176.04L623.96 174.12C624.36 173.83 624.16 173.19 623.66 173.19H620.4C620.18 173.19 619.98 173.05 619.91 172.84L618.9 169.74C618.74 169.27 618.08 169.27 617.92 169.74Z" fill="#FFBD66"/>
<path d="M603.32 169.74L602.31 172.84C602.24 173.05 602.04 173.19 601.82 173.19H598.56C598.06 173.19 597.86 173.83 598.26 174.12L600.9 176.04C601.08 176.17 601.16 176.4 601.09 176.61L600.08 179.71C599.93 180.18 600.47 180.58 600.87 180.28L603.51 178.36C603.69 178.23 603.93 178.23 604.11 178.36L606.75 180.28C607.15 180.57 607.69 180.18 607.54 179.71L606.53 176.61C606.46 176.4 606.54 176.17 606.72 176.04L609.36 174.12C609.76 173.83 609.56 173.19 609.06 173.19H605.8C605.58 173.19 605.38 173.05 605.31 172.84L604.3 169.74C604.14 169.27 603.47 169.27 603.32 169.74Z" fill="#FFBD66"/>
<path d="M668.77 192.3H578.84C578.21 192.3 577.7 191.79 577.7 191.16V190.91C577.7 190.28 578.21 189.77 578.84 189.77H668.77C669.4 189.77 669.91 190.28 669.91 190.91V191.16C669.91 191.79 669.4 192.3 668.77 192.3Z" fill="white"/>
<path d="M648.2 201.59H558.27C557.64 201.59 557.13 201.08 557.13 200.45V200.2C557.13 199.57 557.64 199.06 558.27 199.06H648.2C648.83 199.06 649.34 199.57 649.34 200.2V200.45C649.33 201.08 648.82 201.59 648.2 201.59Z" fill="white"/>
<path d="M572.03 192.3H542.24C541.61 192.3 541.1 191.79 541.1 191.16V190.91C541.1 190.28 541.61 189.77 542.24 189.77H572.03C572.66 189.77 573.17 190.28 573.17 190.91V191.16C573.17 191.79 572.66 192.3 572.03 192.3Z" fill="white"/>
<path d="M551.68 201.59H542.23C541.6 201.59 541.09 201.08 541.09 200.45V200.2C541.09 199.57 541.6 199.06 542.23 199.06H551.68C552.31 199.06 552.82 199.57 552.82 200.2V200.45C552.82 201.08 552.31 201.59 551.68 201.59Z" fill="white"/>
<path d="M668.77 201.59H659.32C658.69 201.59 658.18 201.08 658.18 200.45V200.2C658.18 199.57 658.69 199.06 659.32 199.06H668.77C669.4 199.06 669.91 199.57 669.91 200.2V200.45C669.91 201.08 669.4 201.59 668.77 201.59Z" fill="white"/>
<path d="M716.97 173.71C715.68 171.47 714.87 168.79 714.43 166.24C717.23 157.98 712.85 149.65 703.31 151.69C695.77 149.76 691.46 153.2 692.39 161.52C693.37 169.07 688.74 176.06 688.21 182.37C688.89 187.65 719.07 188.31 718.44 181.86C719.87 179.2 718.38 176.6 716.97 173.71ZM692.6 157.72C692.74 151.94 697.6 150.86 701.84 151.54C697.18 150.99 692.98 152.88 692.6 157.72ZM714.31 165.33C714.18 163.06 715.04 160.79 714.59 158.54C715.26 160.91 715.33 163.62 714.36 165.93C714.34 165.73 714.32 165.53 714.31 165.33ZM715.9 171.94C717.29 175.06 719.84 178.44 718.42 181.53C718.2 179.11 716.98 175.53 715.9 171.94ZM692.6 157.71C693.47 155.31 695.1 153.27 697.2 151.88C694.1 152.76 692.99 155.02 692.6 157.71ZM714.48 161.69C714.42 161.69 714.36 161.69 714.3 161.68C714.37 162.05 714.42 162.42 714.45 162.8C714.5 162.42 714.55 162.05 714.59 161.68C714.56 161.69 714.52 161.69 714.48 161.69Z" fill="#23292E"/>
<path d="M714.12 185.39C707.73 186.86 700.45 186.7 694 185.57C696.44 184.19 699.53 181.79 698.9 178.43C698.32 175.31 692.74 174.62 694.25 169.37C695.58 164.76 711.75 171.07 711.75 171.07C712.85 175.44 707.88 176.22 707.78 178.69C707.71 181.58 712.03 184.67 714.12 185.39Z" fill="#D1D3D4"/>
<path d="M723.96 207.47C712.47 217.14 694.3 217.13 682.82 207.43C683 200.55 683.47 192.31 684.67 190.46C685.66 188.93 689.56 187.07 692.77 185.79C694.45 185.12 698.19 184.04 699.53 183.76C701.62 183.75 704.97 183.65 707.77 183.91C710.3 184.11 711.92 184.74 714.19 185.37C717.38 186.35 720.82 187.79 722.01 189.64C723.24 191.52 723.75 200.29 723.96 207.47Z" fill="white"/>
<path d="M707.35 184.02C707.32 184.58 703.61 189.81 703.61 189.81L699.54 183.76C699.84 182.22 700.78 177.31 701.06 175.86L706.32 175.97L706.35 176.22L707.35 184.02Z" fill="#F9CBCB"/>
<path d="M707.35 184.02C705.98 182.4 705.47 177.5 700.64 178.07L701.05 175.91L706.31 176.02L706.34 176.21L707.35 184.02Z" fill="#EBB0B0"/>
<path d="M694.61 166.99L695.95 171.32C695.89 171.31 695.86 171.3 695.82 171.31C695.82 171.31 695.82 171.31 695.81 171.29C689.02 171.03 688.51 163.94 693.16 164.77C693.33 165.59 694.05 166.29 694.61 166.99Z" fill="#F9CBCB"/>
<path d="M712.26 171.83C712.1 171.87 711.94 171.89 711.75 171.93C711.78 171.86 712.52 168.04 712.56 167.86C713.03 167.13 713.42 166.33 713.75 165.47C717.78 164.19 718.78 170.29 712.26 171.83Z" fill="#F9CBCB"/>
<path d="M714.74 164.79C714.42 179.83 694.25 182.34 692.68 164.19C693.69 146.9 715.78 150.24 714.74 164.79Z" fill="#F9CBCB"/>
<path d="M714.74 164.79C714.76 162.68 714.41 160.83 713.78 159.25L713.63 159.19C712.21 155.28 708.6 152.13 703.5 152.25C707.95 152.53 710.86 155.21 712.33 158.71L704.43 155.8L700.29 156.32C700.29 156.32 700.65 161.68 708.08 163.39L708.23 161.68C708.23 161.68 709.66 165.19 711.3 166.93C714.62 171.66 708.11 177.34 703.02 177.18C706.62 177.33 709.42 175.87 711.36 173.59H711.38C713.15 171.58 714.41 168.65 714.74 164.79Z" fill="#EBB0B0"/>
<path d="M703.23 202.41C703.21 200.91 705.56 200.91 705.54 202.41C705.56 203.91 703.2 203.91 703.23 202.41Z" fill="#D1D3D4"/>
<path d="M703.23 206.28C703.21 204.78 705.56 204.78 705.54 206.28C705.56 207.77 703.2 207.77 703.23 206.28Z" fill="#D1D3D4"/>
<path d="M702.58 202.41C702.56 200.91 704.91 200.91 704.89 202.41C704.91 203.91 702.55 203.91 702.58 202.41Z" fill="#BCBEC0"/>
<path d="M702.58 206.28C702.56 204.78 704.91 204.78 704.89 206.28C704.91 207.77 702.55 207.77 702.58 206.28Z" fill="#BCBEC0"/>
<path d="M703.23 193.77C703.21 192.27 705.56 192.27 705.54 193.77C705.56 195.27 703.2 195.27 703.23 193.77Z" fill="#D1D3D4"/>
<path d="M703.23 197.64C703.21 196.14 705.56 196.14 705.54 197.64C705.56 199.13 703.2 199.13 703.23 197.64Z" fill="#D1D3D4"/>
<path d="M702.58 193.77C702.56 192.27 704.91 192.27 704.89 193.77C704.91 195.27 702.55 195.27 702.58 193.77Z" fill="#BCBEC0"/>
<path d="M702.58 197.64C702.56 196.14 704.91 196.14 704.89 197.64C704.91 199.13 702.55 199.13 702.58 197.64Z" fill="#BCBEC0"/>
<path d="M699.36 184.53C697.92 185.26 696.7 186.11 696.11 187.32C699.08 188.07 701.44 187.61 703.59 189.81L699.36 184.53Z" fill="#D1D3D4"/>
<path d="M707.68 184.35C709.12 185.08 710.34 185.93 710.93 187.14C707.96 187.89 705.76 187.61 703.61 189.81L707.68 184.35Z" fill="#D1D3D4"/>
<path d="M700.26 156.09C700.26 156.09 701.16 160.66 693.04 166.68C687.82 147.56 719.64 146.12 714.77 167.58C714.77 167.58 708.33 163.37 707.83 158.97C707.83 158.97 707.64 161.06 707.83 161.66C707.83 161.67 702.28 161.48 700.26 156.09Z" fill="#23292E"/>
<path d="M716.22 196.85H709.58C708.98 196.86 708.97 195.86 709.58 195.87H716.22C716.82 195.86 716.83 196.86 716.22 196.85Z" fill="#BCBEC0"/>
<path d="M715.88 196.52H709.24C708.64 196.53 708.63 195.53 709.24 195.54H715.88C716.48 195.53 716.49 196.53 715.88 196.52Z" fill="#BCBEC0"/>
<path d="M699.53 183.76C698.09 184.49 696.87 185.34 696.28 186.55C699.25 187.3 701.45 187.62 703.6 189.81L699.53 183.76Z" fill="#BCBEC0"/>
<path d="M707.68 183.76C709.12 184.49 710.34 185.34 710.93 186.55C707.96 187.3 705.76 187.62 703.61 189.81L707.68 183.76Z" fill="#BCBEC0"/>
<path d="M690.99 202.12V212.31C690.64 212.17 690.3 212.02 689.96 211.86L690.99 202.12Z" fill="#D1D3D4"/>
<path d="M717.92 211.36C717.59 211.52 717.26 211.68 716.93 211.83L717.09 202.07L717.92 211.36Z" fill="#D1D3D4"/>
</svg>
